<svg width="38" height="42" viewBox="0 0 38 42" fill="none" xmlns="http://www.w3.org/2000/svg">
<path fill-rule="evenodd" clip-rule="evenodd" d="M17.903 0.285994C18.582 -0.0950059 19.418 -0.0950059 20.096 0.285994C23.451 2.16899 33.547 7.83699 36.903 9.71999C37.582 10.1 38 10.804 38 11.566C38 15.332 38 26.667 38 30.433C38 31.195 37.582 31.899 36.903 32.28C33.548 34.163 23.452 39.831 20.096 41.714C19.417 42.095 18.581 42.095 17.903 41.714C14.548 39.831 4.452 34.163 1.096 32.28C0.418 31.899 0 31.196 0 30.434C0 26.668 0 15.333 0 11.567C0 10.805 0.418 10.101 1.097 9.71999C4.451 7.83699 14.549 2.16899 17.903 0.285994Z" fill="#283593"/>
<path fill-rule="evenodd" clip-rule="evenodd" d="M0.304 31.404C0.0379999 31.048 0 30.71 0 30.255C0 26.511 0 15.241 0 11.496C0 10.738 0.417 10.038 1.094 9.65998C4.437 7.78798 14.499 2.15298 17.842 0.279976C18.519 -0.0990236 19.436 -0.0910234 20.113 0.287977C23.456 2.15998 33.484 7.74698 36.827 9.61898C37.097 9.77098 37.303 9.95398 37.487 10.195L0.304 31.404Z" fill="#5C6BC0"/>
<path fill-rule="evenodd" clip-rule="evenodd" d="M19 7C26.727 7 33 13.273 33 21C33 28.727 26.727 35 19 35C11.273 35 5 28.727 5 21C5 13.273 11.273 7 19 7ZM19 14C22.863 14 26 17.136 26 21C26 24.863 22.863 28 19 28C15.137 28 12 24.863 12 21C12 17.136 15.136 14 19 14Z" fill="white"/>
<path fill-rule="evenodd" clip-rule="evenodd" d="M37.485 10.205C38.001 10.688 37.991 11.416 37.991 11.989C37.991 15.784 37.959 26.578 38 30.373C38.004 30.769 37.873 31.186 37.677 31.5L18.593 21L37.485 10.205Z" fill="#3949AB"/>
</svg>
