<svg width="21" height="19" viewBox="0 0 21 19" fill="none" xmlns="http://www.w3.org/2000/svg">
<mask id="path-1-inside-1_245_778" fill="white">
<path fill-rule="evenodd" clip-rule="evenodd" d="M10.6257 13.4766H11.4902L12.0876 10.592L13.4975 10.5979C14.4819 10.5979 15.2914 10.3564 15.9266 9.87363C16.5625 9.39082 16.9251 8.74805 17.0144 7.94414C17.0682 7.39277 16.9801 6.91289 16.749 6.50566L15.0798 7.3418C15.0921 7.40625 15.0988 7.47246 15.1012 7.53809C15.1147 8.04902 14.9894 8.45566 14.7252 8.75859C14.4611 9.06094 14.0894 9.21562 13.6112 9.22324L12.3694 9.21152L12.4881 8.64023L10.3389 9.7166L9.94764 11.618L9.4206 10.1766L7.80341 10.9869L8.46496 13.4766H10.6257ZM9.82169 7.03711H10.8917L10.5664 8.61504L12.7161 7.53809L12.8995 6.65332L14.3027 6.66504C14.3455 6.66738 14.3883 6.67266 14.4299 6.68027L16.1419 5.82246C15.6858 5.4791 15.1018 5.29805 14.3896 5.2793L11.2555 5.27344H9.90117L8.75171 7.03711L8.10912 8.07949L7.35708 5.27344H5.22936L6.67964 9.27363L5.17128 11.3186L9.24268 9.27832L10.8917 7.03652L9.82169 7.03711ZM10.3041 18.75C4.90104 18.75 0.521484 14.5529 0.521484 9.375C0.521484 4.19707 4.90104 0 10.3041 0C15.7071 0 20.0867 4.19707 20.0867 9.375C20.0867 14.5529 15.7071 18.75 10.3041 18.75ZM4.05912 12.8625L4.04689 12.8408L3.57855 13.4766H5.88052L7.31612 11.2307L4.05912 12.8625Z"/>
</mask>
<path fill-rule="evenodd" clip-rule="evenodd" d="M10.6257 13.4766H11.4902L12.0876 10.592L13.4975 10.5979C14.4819 10.5979 15.2914 10.3564 15.9266 9.87363C16.5625 9.39082 16.9251 8.74805 17.0144 7.94414C17.0682 7.39277 16.9801 6.91289 16.749 6.50566L15.0798 7.3418C15.0921 7.40625 15.0988 7.47246 15.1012 7.53809C15.1147 8.04902 14.9894 8.45566 14.7252 8.75859C14.4611 9.06094 14.0894 9.21562 13.6112 9.22324L12.3694 9.21152L12.4881 8.64023L10.3389 9.7166L9.94764 11.618L9.4206 10.1766L7.80341 10.9869L8.46496 13.4766H10.6257ZM9.82169 7.03711H10.8917L10.5664 8.61504L12.7161 7.53809L12.8995 6.65332L14.3027 6.66504C14.3455 6.66738 14.3883 6.67266 14.4299 6.68027L16.1419 5.82246C15.6858 5.4791 15.1018 5.29805 14.3896 5.2793L11.2555 5.27344H9.90117L8.75171 7.03711L8.10912 8.07949L7.35708 5.27344H5.22936L6.67964 9.27363L5.17128 11.3186L9.24268 9.27832L10.8917 7.03652L9.82169 7.03711ZM10.3041 18.75C4.90104 18.75 0.521484 14.5529 0.521484 9.375C0.521484 4.19707 4.90104 0 10.3041 0C15.7071 0 20.0867 4.19707 20.0867 9.375C20.0867 14.5529 15.7071 18.75 10.3041 18.75ZM4.05912 12.8625L4.04689 12.8408L3.57855 13.4766H5.88052L7.31612 11.2307L4.05912 12.8625Z" fill="black"/>
<path d="M8.75171 19.5371H9.82169V-5.46289H8.75171V19.5371ZM11.4902 13.4766V38.4766H31.8435L35.9708 18.5461L11.4902 13.4766ZM12.0876 10.592L12.1915 -14.4078L-8.24818 -14.4927L-12.393 5.52244L12.0876 10.592ZM13.4975 10.5979L13.3936 35.5976L13.4456 35.5979H13.4975V10.5979ZM15.9266 9.87363L0.808462 -10.0372L0.79924 -10.0302L15.9266 9.87363ZM17.0144 7.94414L41.8616 10.7032L41.88 10.5378L41.8962 10.3722L17.0144 7.94414ZM16.749 6.50566L38.4915 -5.83389L26.7752 -26.4781L5.55201 -15.8467L16.749 6.50566ZM15.0798 7.3418L3.88285 -15.0106L-13.0022 -6.55232L-9.48202 12.0018L15.0798 7.3418ZM15.1012 7.53809L40.0926 6.88016L40.089 6.74358L40.0839 6.60706L15.1012 7.53809ZM14.7252 8.75859L33.5526 25.2064L33.5605 25.1973L33.5684 25.1883L14.7252 8.75859ZM13.6112 9.22324L13.3753 34.2221L13.6924 34.2251L14.0095 34.2201L13.6112 9.22324ZM12.3694 9.21152L-12.1085 4.12927L-18.2945 33.9233L12.1335 34.2104L12.3694 9.21152ZM12.4881 8.64023L36.966 13.7225L47.4635 -36.8372L1.29268 -13.7129L12.4881 8.64023ZM10.3389 9.7166L-0.856442 -12.6365L-11.7026 -7.20432L-14.1479 4.67718L10.3389 9.7166ZM9.94764 11.618L-13.532 20.2031L16.6927 102.865L34.4345 16.6574L9.94764 11.618ZM9.4206 10.1766L32.9003 1.59142L23.2763 -24.7294L-1.77917 -12.1744L9.4206 10.1766ZM7.80341 10.9869L-3.39635 -11.364L-21.5818 -2.25154L-16.3581 17.4071L7.80341 10.9869ZM8.46496 13.4766L-15.6966 19.8968L-10.7596 38.4766H8.46496V13.4766ZM9.82169 7.03711L9.80799 -17.9629L9.82169 32.0371V7.03711ZM10.8917 7.03711L35.3769 12.0844L41.5708 -17.9629H10.8917V7.03711ZM10.5664 8.61504L-13.9188 3.56771L-24.3266 54.0572L21.7641 30.967L10.5664 8.61504ZM12.7161 7.53809L23.9138 29.8901L34.738 24.4675L37.1956 12.613L12.7161 7.53809ZM12.8995 6.65332L13.1083 -18.3458L-7.41384 -18.5172L-11.5799 1.57837L12.8995 6.65332ZM14.3027 6.66504L15.6697 -18.2976L15.091 -18.3292L14.5115 -18.3341L14.3027 6.66504ZM14.4299 6.68027L9.92463 31.271L18.1516 32.7783L25.6294 29.0314L14.4299 6.68027ZM16.1419 5.82246L27.3414 28.1736L63.3996 10.1058L31.1775 -14.1507L16.1419 5.82246ZM14.3896 5.2793L15.0474 -19.712L14.7419 -19.7201L14.4363 -19.7207L14.3896 5.2793ZM11.2555 5.27344L11.3022 -19.7265L11.2788 -19.7266H11.2555V5.27344ZM9.90117 5.27344V-19.7266H-3.64621L-11.0432 -8.37688L9.90117 5.27344ZM8.75171 7.03711L-12.1927 -6.61321L-12.3644 -6.34975L-12.5294 -6.08205L8.75171 7.03711ZM8.10912 8.07949L-16.0387 14.5512L-1.03148 70.5471L29.3903 21.1986L8.10912 8.07949ZM7.35708 5.27344L31.5049 -1.1983L26.5392 -19.7266H7.35708V5.27344ZM5.22936 5.27344V-19.7266H-30.4267L-18.2737 13.7945L5.22936 5.27344ZM6.67964 9.27363L26.7986 24.1136L34.7459 13.3392L30.1827 0.752607L6.67964 9.27363ZM5.17128 11.3186L-14.9477 -3.52144L16.3715 33.6693L5.17128 11.3186ZM9.24268 9.27832L20.4429 31.629L25.8186 28.9352L29.3814 24.0916L9.24268 9.27832ZM10.8917 7.03652L31.0304 21.8498L60.3354 -17.9906L10.878 -17.9635L10.8917 7.03652ZM4.05912 12.8625L-17.7157 25.1448L-6.0222 45.8758L15.2578 35.214L4.05912 12.8625ZM4.04689 12.8408L25.8217 0.558481L6.83767 -33.0976L-16.081 -1.98712L4.04689 12.8408ZM3.57855 13.4766L-16.5493 -1.35138L-45.89 38.4766H3.57855V13.4766ZM5.88052 13.4766V38.4766H19.5713L26.9449 26.9411L5.88052 13.4766ZM7.31612 11.2307L28.3805 24.6952L77.2615 -51.776L-3.88254 -11.1208L7.31612 11.2307ZM10.6257 38.4766H11.4902V-11.5234H10.6257V38.4766ZM35.9708 18.5461L36.5682 15.6615L-12.393 5.52244L-12.9904 8.40701L35.9708 18.5461ZM11.9837 35.5918L13.3936 35.5976L13.6014 -14.4019L12.1915 -14.4078L11.9837 35.5918ZM13.4975 35.5979C18.644 35.5979 25.1352 34.2759 31.0541 29.7774L0.79924 -10.0302C5.44758 -13.563 10.3197 -14.4021 13.4975 -14.4021V35.5979ZM31.0448 29.7844C37.2115 25.1021 41.0267 18.222 41.8616 10.7032L-7.83294 5.18508C-7.54154 2.56082 -6.72624 -0.367575 -5.1017 -3.24892C-3.47359 -6.1366 -1.36513 -8.38678 0.808464 -10.0372L31.0448 29.7844ZM41.8962 10.3722C42.3538 5.68282 41.7165 -0.151308 38.4915 -5.83389L-4.99348 18.8452C-7.7563 13.9771 -8.21746 9.10273 -7.86746 5.51609L41.8962 10.3722ZM5.55201 -15.8467L3.88285 -15.0106L26.2768 29.6941L27.946 28.858L5.55201 -15.8467ZM-9.48202 12.0018C-9.73709 10.6573 -9.84449 9.45989 -9.88142 8.46912L40.0839 6.60706C40.0421 5.48503 39.9212 4.15518 39.6417 2.68184L-9.48202 12.0018ZM-9.8901 8.19602C-9.99522 4.20301 -9.00016 -2.07172 -4.11793 -7.67112L33.5684 25.1883C38.9789 18.9831 40.2246 11.895 40.0926 6.88016L-9.8901 8.19602ZM-4.10216 -7.68919C-1.70283 -10.4356 1.29299 -12.5831 4.62938 -13.9739C7.86585 -15.3231 10.8729 -15.7363 13.213 -15.7736L14.0095 34.2201C20.0637 34.1236 27.7291 31.8724 33.5526 25.2064L-4.10216 -7.68919ZM13.8471 -15.7756L12.6054 -15.7874L12.1335 34.2104L13.3753 34.2221L13.8471 -15.7756ZM36.8474 14.2938L36.966 13.7225L-11.9899 3.55798L-12.1085 4.12927L36.8474 14.2938ZM1.29268 -13.7129L-0.856442 -12.6365L21.5343 32.0698L23.6834 30.9934L1.29268 -13.7129ZM-14.1479 4.67718L-14.5392 6.57855L34.4345 16.6574L34.8258 14.756L-14.1479 4.67718ZM33.4273 3.03282L32.9003 1.59142L-14.0591 18.7617L-13.532 20.2031L33.4273 3.03282ZM-1.77917 -12.1744L-3.39635 -11.364L19.0032 33.3379L20.6204 32.5275L-1.77917 -12.1744ZM-16.3581 17.4071L-15.6966 19.8968L32.6265 7.05636L31.965 4.56671L-16.3581 17.4071ZM8.46496 38.4766H10.6257V-11.5234H8.46496V38.4766ZM9.82169 32.0371H10.8917V-17.9629H9.82169V32.0371ZM-13.5935 1.98978L-13.9188 3.56771L35.0516 13.6624L35.3769 12.0844L-13.5935 1.98978ZM21.7641 30.967L23.9138 29.8901L1.5184 -14.8139L-0.631329 -13.7369L21.7641 30.967ZM37.1956 12.613L37.379 11.7283L-11.5799 1.57837L-11.7634 2.46314L37.1956 12.613ZM12.6908 31.6524L14.0939 31.6642L14.5115 -18.3341L13.1083 -18.3458L12.6908 31.6524ZM12.9357 31.6276C11.8561 31.5685 10.8494 31.4404 9.92463 31.271L18.9352 -17.9104C17.9272 -18.0951 16.835 -18.2337 15.6697 -18.2976L12.9357 31.6276ZM25.6294 29.0314L27.3414 28.1736L4.94237 -16.5286L3.23042 -15.6708L25.6294 29.0314ZM31.1775 -14.1507C25.6375 -18.3212 19.6587 -19.5907 15.0474 -19.712L13.7317 30.2706C10.545 30.1868 5.73397 29.2794 1.10619 25.7957L31.1775 -14.1507ZM14.4363 -19.7207L11.3022 -19.7265L11.2087 30.2734L14.3428 30.2793L14.4363 -19.7207ZM11.2555 -19.7266H9.90117V30.2734H11.2555V-19.7266ZM-11.0432 -8.37688L-12.1927 -6.61321L29.6961 20.6874L30.8456 18.9238L-11.0432 -8.37688ZM-12.5294 -6.08205L-13.172 -5.03966L29.3903 21.1986L30.0329 20.1563L-12.5294 -6.08205ZM32.2569 1.60775L31.5049 -1.1983L-16.7907 11.7452L-16.0387 14.5512L32.2569 1.60775ZM7.35708 -19.7266H5.22936V30.2734H7.35708V-19.7266ZM-18.2737 13.7945L-16.8234 17.7947L30.1827 0.752607L28.7324 -3.24759L-18.2737 13.7945ZM-13.4394 -5.56636L-14.9477 -3.52144L25.2903 26.1585L26.7986 24.1136L-13.4394 -5.56636ZM16.3715 33.6693L20.4429 31.629L-1.95757 -13.0724L-6.02897 -11.0322L16.3715 33.6693ZM29.3814 24.0916L31.0304 21.8498L-9.24704 -7.77674L-10.896 -5.53495L29.3814 24.0916ZM10.878 -17.9635L9.80799 -17.9629L9.83538 32.0371L10.9054 32.0365L10.878 -17.9635ZM10.3041 -6.25C17.6947 -6.25 25.5215 -0.246282 25.5215 9.375H-24.4785C-24.4785 29.3521 -7.89266 43.75 10.3041 43.75V-6.25ZM25.5215 9.375C25.5215 18.9963 17.6947 25 10.3041 25V-25C-7.89266 -25 -24.4785 -10.6021 -24.4785 9.375H25.5215ZM10.3041 25C2.91346 25 -4.9133 18.9963 -4.9133 9.375H45.0867C45.0867 -10.6021 28.5008 -25 10.3041 -25V25ZM-4.9133 9.375C-4.9133 -0.246282 2.91346 -6.25 10.3041 -6.25V43.75C28.5008 43.75 45.0867 29.3521 45.0867 9.375H-4.9133ZM25.834 0.58016L25.8217 0.558481L-17.728 25.1232L-17.7157 25.1448L25.834 0.58016ZM-16.081 -1.98712L-16.5493 -1.35138L23.7064 28.3045L24.1748 27.6688L-16.081 -1.98712ZM3.57855 38.4766H5.88052V-11.5234H3.57855V38.4766ZM26.9449 26.9411L28.3805 24.6952L-13.7482 -2.23385L-15.1838 0.0120498L26.9449 26.9411ZM-3.88254 -11.1208L-7.13954 -9.48901L15.2578 35.214L18.5148 33.5822L-3.88254 -11.1208Z" fill="black" mask="url(#path-1-inside-1_245_778)"/>
</svg>
