<svg width="823" height="823" viewBox="0 0 823 823" fill="none" xmlns="http://www.w3.org/2000/svg">
<path d="M388.333 1.13342C320.333 4.46675 258.067 23.2668 201.133 57.5334C169.267 76.7334 131.4 108.333 106.2 136.333C30.3333 221.133 -4.20002 318.733 1.13331 433.667C4.33331 502.867 22.8666 564.467 57.6666 622.333C98.7333 690.467 167.8 753.267 237.267 785.533C291.933 811 346.333 822.467 411.667 822.467C497.667 822.467 569.8 801.4 636.333 756.867C677.267 729.533 712.467 695.933 743.133 655.267C800.6 578.733 826.867 490.6 822.2 389.667C819.533 332.733 807.667 284.467 784.333 236.067C754.6 174.333 711.133 121.933 654.067 79.4001C592.2 33.0001 517.4 5.53342 443 1.66675C412.867 0.200087 407.933 0.066754 388.333 1.13342ZM289.933 255.533C311.933 261 331.133 272.467 347.933 290.067C372.733 316.067 386.467 349.267 391.533 394.6C392.333 401.8 393 411.133 393 415.667V423.667H278.2H163.267L164.067 438.6C166.467 482.733 189 512.6 228.6 523.933C242.333 527.933 271.667 528.2 285 524.6C310.733 517.667 332.733 497.533 336.467 477.533L337.267 473H362.6H387.933L386.867 477.267C379.267 512.467 357 540.867 324.067 557.533C301 569.133 264.867 574.2 233.4 570.333C201.4 566.333 176.6 554.867 155.533 534.333C133.8 513 121.667 488.733 113.933 451C110.067 431.533 109.667 389 113.267 372.2C122.2 331 144.2 296.067 174.067 275.8C190.333 264.733 212.733 255.8 231 253C244.333 251 277.4 252.333 289.933 255.533ZM518.2 307C539 337.4 556.467 362.333 557.133 362.333C557.667 362.333 575.667 337.667 597.133 307.533C618.6 277.4 636.733 252.467 637.533 252.2C638.333 251.933 652.733 251.8 669.4 251.933L699.8 252.333L646.867 323C617.8 361.8 593.133 395 592.067 396.6C590.2 399.4 593 403.533 650.6 483.933C683.933 530.333 711.667 569.133 712.2 569.933C713 571.267 706.067 571.667 679.4 571.667L645.667 571.533L601.8 506.333C577.8 470.333 557.667 441 557.133 441C556.6 441 536.333 470.333 512.2 506.333L468.333 571.533L436.733 571.667C419.267 571.667 405 571.4 405 571.133C405 570.733 431.667 533.133 464.333 487.4C497 441.667 523.4 403.667 523.133 402.867C522.733 401.933 498.2 368.2 468.467 327.667C438.733 287.133 414.333 253.533 414.333 252.867C414.333 252.2 428.867 251.667 447.4 251.667H480.333L518.2 307Z" fill="#616161"/>
<path d="M238.333 297C218.867 299.533 204.467 306.733 190.2 321C181.8 329.133 179 333.266 173.933 343.666C168.2 355.533 163.667 371.266 163.667 378.866V382.333H251H338.333V377.933C338.333 370.066 333.267 353.266 327.667 342.466C314.733 317.533 291.267 301 263.133 297.133C251.933 295.533 249.267 295.533 238.333 297Z" fill="#616161"/>
</svg>
