<svg width="65" height="26" viewBox="0 0 65 26" fill="none" xmlns="http://www.w3.org/2000/svg">
<path d="M9.40012 22.8C8.30012 22 7.20012 21.1 6.40012 20C4.80012 18 3.50012 15.7 2.60012 13.2C2.10012 11.6 1.90012 9.89997 1.20012 8.39997C0.500118 7.29997 1.30012 6.09998 2.50012 5.69998C3.00012 5.59998 4.00012 5.09998 2.80012 5.49998C1.80012 6.29998 1.70012 4.79998 2.70012 4.69998C3.40012 4.59998 3.70012 3.99998 3.40012 3.49998C2.60012 2.99998 5.30012 2.39998 3.90012 1.69998C2.50012 0.199976 5.80012 -0.100024 5.00012 1.59998C4.80012 2.89998 7.30012 1.39998 6.70012 2.89998C7.60012 3.59998 9.30012 2.99998 9.20012 3.99998C10.1001 4.09998 10.4001 4.79997 11.2001 4.79997C12.0001 5.19997 13.6001 5.49997 13.9001 6.39997C13.0001 7.19997 11.1001 5.19998 11.0001 6.99998C11.3001 9.69998 11.2001 12.5 12.2001 15.1C12.7001 16.7 13.8001 17.9 14.8001 19.1C15.8001 20.3 17.1001 21.1 18.5001 21.8C19.7001 22.4 21.0001 22.7 22.3001 23C22.8001 22.6 23.8001 21.1 24.6001 21.7C24.6001 22.4 23.0001 23.2 24.5001 23.1C25.4001 22.8 26.0001 23.8 26.8001 22.9C27.5001 23.7 29.7001 22.4 29.2001 24.1C28.5001 24.5 27.6001 24.3 26.9001 24.9C25.8001 24.4 24.9001 25.4 23.7001 25.3C22.3001 25.5 21.0001 25.6 19.6001 25.6C17.4001 25.4 15.1001 25.3 12.9001 24.6C11.7001 24.2 10.5001 23.5 9.40012 22.8ZM11.3001 23.6C12.5001 24.1 13.6001 24.6 14.9001 24.8C16.9001 25.1 19.1001 25.5 21.1001 25.1C20.2001 24.7 19.2001 25.3 18.3001 24.8C17.2001 25 16.0001 24.7 14.9001 24.6C13.6001 24 12.2001 23.6 11.0001 22.9C9.50012 22.4 11.8001 23.6 12.2001 23.7C13.1001 24.2 11.2001 23.4 10.9001 23.2C10.1001 22.8 10.0001 22.9 10.8001 23.3C11.0001 23.5 11.2001 23.6 11.3001 23.6ZM9.10012 22.1C10.2001 22.5 9.10012 21.3 8.60012 21.4C8.40012 21 7.70012 20.7 8.20012 20.5C7.40012 20.8 7.30012 19.4 6.90012 19.6C6.00012 19.3 6.60012 18.3 5.50012 17.7C5.40012 17.1 4.50012 16.5 4.20012 15.6C4.00012 15.1 3.10012 13.7 3.70012 15C4.20012 16.3 5.00012 17.3 5.80012 18.4C6.40012 19.4 7.00012 20.5 8.00012 21.1C8.30012 21.5 8.60012 22 9.10012 22.1ZM14.1001 24.2C14.6001 24.5 16.8001 24.8 15.4001 24.3C15.2001 24.4 12.8001 23.6 14.1001 24.2ZM8.90012 20C9.40012 20.4 11.1001 20.1 9.70012 19.7C9.10012 19.4 7.70012 19.1 8.60012 19.9L8.90012 20ZM11.6001 21.4C12.9001 21.8 10.5001 20.6 11.3001 21.3L11.5001 21.4H11.6001ZM13.9001 22.7C15.2001 22.8 12.8001 22.6 13.9001 22.7ZM11.6001 20.7C12.6001 20.8 10.4001 20 11.4001 20.6L11.6001 20.7ZM15.0001 22.8C15.9001 22.3 15.6001 24.1 16.5001 23C17.4001 22.3 15.7001 23.8 16.8001 23.1C17.6001 22.6 18.8001 23.4 19.6001 23.6C20.1001 23.6 20.7001 24.1 21.2001 23.8C22.3001 23.5 19.1001 23.4 19.9001 22.8C18.9001 23.1 18.2001 22.5 17.7001 21.8C16.6001 21.5 15.3001 21 14.7001 20C14.5001 19.6 15.0001 20.1 14.5001 19.4C13.8001 18.8 13.5001 18.1 13.0001 17.4C12.5001 17.1 12.4001 16.3 12.3001 17.4C12.3001 16.7 11.7001 16.2 11.5001 16.4C11.5001 15.7 12.2001 16.1 11.7001 15.6C11.6001 14.9 11.2001 14.2 11.1001 13.4C10.9001 13 11.1001 12.2 10.5001 13.1C10.6001 14 10.8001 12 11.1001 12.6C11.5001 11.9 11.0001 12 10.9001 12.1C11.2001 11.5 11.1001 10.7 10.8001 11C10.9001 10.4 11.0001 8.79998 10.6001 9.09998C10.9001 8.49998 11.1001 6.19998 10.0001 7.09998C9.50012 7.09998 8.80012 7.29997 8.40012 7.39997C9.60012 7.99997 8.30012 7.59998 7.80012 7.49998C7.70012 8.09998 7.30012 7.79997 6.70012 7.79997C7.60012 7.89997 6.20012 8.79997 5.70012 8.39997C5.00012 8.69997 6.30012 9.59997 5.70012 9.79997C5.80012 10.2 4.60012 9.69998 4.70012 10.6C4.00012 10.3 4.60012 11.7 4.90012 11.2C6.00012 11.5 5.70012 12.2 5.70012 12.9C5.50012 13.3 4.80012 12 5.50012 12C4.90012 11 4.80012 11.6 4.30012 12.1C4.20012 12.1 5.60012 12.7 4.70012 13C5.50012 13.1 5.50012 13.8 5.60012 14.2C6.10012 14.7 6.00012 13.7 6.50012 14.2C6.20012 13.7 4.70012 12.8 5.90012 13.1C5.90012 12.6 5.70012 12.2 6.10012 12.2C6.50012 11.5 5.70012 13.8 6.50012 13C7.00012 13 7.00012 12.5 7.40012 13.2C8.00012 13.8 7.60012 14.2 6.80012 13.7C6.90012 14.2 7.90012 14.4 7.70012 15.2C7.90012 15.9 8.20012 15.6 8.40012 15.6C8.60012 16.3 8.70012 15.8 8.70012 15.5C9.50012 15.7 9.30012 16.2 9.60012 16.5C10.2001 16.8 8.80012 14.7 9.80012 15.9C10.9001 16.9 10.2001 17.3 9.20012 17.1C9.80012 17.1 10.0001 17.9 10.7001 17.9C11.4001 18.2 11.8001 19.5 10.7001 19C10.3001 18.6 8.80012 18.2 10.0001 18.9C11.1001 19.4 12.0001 19.7 13.0001 20.3C13.8001 20.8 14.1001 21.5 14.4001 21.6C13.8001 21.9 12.5001 21.4 13.4001 21.2C12.8001 21.1 12.1001 20.8 12.7001 21.5C13.2001 21.9 14.4001 21.9 14.6001 21.9C14.4001 22.3 14.1001 22.3 14.6001 22.4C14.2001 22.5 14.9001 22.6 15.0001 22.8ZM13.8001 19.5C13.5001 19.1 13.4001 18.5 13.7001 19C14.0001 19.1 14.4001 20.1 13.8001 19.5ZM11.6001 15.8C11.2001 14.9 11.9001 15.3 11.7001 16L11.6001 15.8ZM7.80012 13.3C7.60012 13 7.30012 12.1 7.40012 11.8C7.50012 12.2 8.30012 13.7 7.80012 12.4C7.20012 11.3 8.50012 12.8 8.60012 13C8.70012 13.3 8.20012 12.9 8.50012 13.6C8.00012 12.9 8.30012 14 7.80012 13.3ZM5.90012 11.6C5.50012 11.2 5.10012 10.8 5.90012 11.3C6.20012 11.3 5.20012 10.4 6.00012 11C6.70012 11.2 6.30012 12.3 5.90012 11.6ZM6.10012 11C4.80012 9.89998 7.70012 11.6 6.30012 11.2L6.10012 11ZM9.80012 13.1C9.20012 12.8 9.70012 10.8 9.80012 12.1C10.3001 11.9 9.80012 12.8 10.2001 12.8C10.1001 13.4 9.90012 13.6 9.80012 13.1ZM6.40012 10.6C5.60012 9.49998 8.80012 11.7 6.90012 10.9C6.70012 10.8 6.50012 10.8 6.40012 10.6ZM9.00012 12C9.10012 12.1 8.90012 11 9.00012 12ZM6.50012 10.2C7.00012 10.1 8.50012 11.1 7.10012 10.5C6.90012 10.3 6.60012 10.3 6.50012 10.2ZM10.7001 12.3C10.8001 11.3 11.0001 11.7 10.7001 12.4V12.3ZM6.90012 9.79997C7.10012 9.49997 6.40012 8.49997 7.00012 9.39997C7.30012 9.59997 7.80012 9.79997 7.30012 9.89997C8.00012 10.5 7.10012 10.1 6.90012 9.79997ZM9.70012 9.89997C9.90012 10.4 9.60012 9.49997 9.70012 9.89997ZM10.0001 9.29997C9.70012 8.89997 10.3001 7.29997 10.4001 8.29997C10.1001 8.99997 10.3001 9.39998 10.5001 8.49998C10.9001 7.69998 10.4001 9.99997 10.0001 9.29997ZM11.1001 20.2C11.8001 20.4 11.8001 20.1 11.2001 20C10.8001 19.7 9.70012 19.3 10.7001 20C10.7001 20.1 11.0001 20.1 11.1001 20.2ZM8.50012 18.5C8.90012 18.8 10.0001 19.3 9.10012 18.6C9.40012 18.2 8.50012 18 8.80012 17.8C8.00012 17.3 8.20012 17.4 8.70012 17.4C7.80012 17 8.80012 17 8.80012 16.8C8.40012 16.7 7.00012 16.2 7.90012 16.8C7.00012 16.4 7.60012 17 7.40012 16.9C6.50012 16.7 8.20012 17.6 7.30012 17.3C7.80012 17.7 8.60012 18.3 7.50012 17.7C7.30012 18 8.30012 18.3 8.50012 18.5ZM17.6001 23.8C18.0001 23.4 17.6001 24.4 18.2001 23.7C18.2001 23.2 18.2001 22.9 17.5001 23.5C17.3001 23.6 17.2001 24.1 17.6001 23.8ZM11.3001 19.8C11.7001 20.2 13.3001 20.1 11.8001 19.8C11.6001 19.5 10.5001 19.6 11.3001 19.8ZM18.7001 24.1C19.4001 23.4 18.0001 24.2 18.7001 24.1ZM4.30012 15C3.70012 14.1 3.90012 13.7 3.30012 13C3.20012 12.4 2.30012 11.2 2.80012 12.5C3.40012 13.3 3.50012 14.5 4.30012 15ZM19.2001 24C19.8001 23.6 19.1001 23.6 19.1001 24H19.2001ZM20.3001 24.3C21.1001 23.7 19.8001 24.2 20.1001 24.4L20.3001 24.3ZM6.40012 15.4C7.00012 15.5 8.80012 16.9 7.80012 15.5C7.20012 15.3 7.60012 14 7.00012 14.2C7.40012 14.8 7.30012 15.1 6.50012 14.7C5.50012 14.2 5.90012 14.9 6.10012 15.1C5.80012 15.3 6.40012 15.4 6.40012 15.4ZM3.60012 13.3C3.70012 12.9 2.60012 10.8 3.10012 12.3C3.20012 12.6 3.20012 13.1 3.60012 13.3ZM16.1001 20.8C16.0001 20.5 15.6001 20.8 16.1001 20.8ZM22.6001 23.8C23.2001 23.7 24.6001 24.1 24.8001 23.6C24.1001 23.6 22.3001 23.1 22.2001 23.7H22.4001L22.6001 23.8ZM3.90012 10.7C4.50012 10.5 2.80012 10.2 3.80012 10.7H3.90012ZM2.00012 8.59998C1.90012 7.99998 1.90012 6.89998 3.00012 7.19998C1.60012 7.49998 4.00012 8.89997 3.70012 7.79997C4.30012 7.79997 4.90012 7.49998 4.50012 7.99998C5.70012 7.89998 6.50012 6.89998 7.60012 6.99998C8.50012 6.89998 9.40012 6.79997 10.4001 6.39997C11.2001 6.29997 11.9001 5.49998 11.5001 4.99998C10.4001 4.89998 9.30012 4.99997 8.20012 5.29997C6.90012 5.59997 5.70012 6.09997 4.40012 6.29997C3.10012 6.49997 4.70012 6.79997 4.30012 6.79997C3.60012 6.99997 5.10012 7.19997 4.20012 7.39997C3.70012 7.29997 3.10012 7.09998 3.30012 6.49998C2.00012 6.79998 1.00012 7.29998 2.00012 8.59998ZM4.90012 7.09998C5.20012 5.99998 6.40012 7.99998 5.40012 7.19998C5.30012 7.09998 5.00012 6.99998 4.90012 7.09998ZM5.50012 6.59998C5.50012 6.09998 6.70012 6.89997 5.70012 6.79997L5.50012 6.59998ZM6.40012 6.19998C6.80012 5.69998 8.90012 5.89998 7.40012 6.09998C7.00012 5.79998 6.70012 6.29998 6.40012 6.19998ZM9.80012 5.69998C10.1001 4.99998 10.9001 5.39998 9.90012 5.59998C9.90012 5.69998 9.90012 5.99998 9.80012 5.69998ZM3.70012 9.59998C4.50012 9.09998 2.90012 9.09998 3.70012 9.59998ZM27.4001 23.8C28.1001 23.8 29.4001 23.6 28.0001 23.6C27.8001 23.6 26.7001 23.6 27.4001 23.8ZM4.90012 9.39997C5.40012 9.39997 5.70012 8.79997 4.80012 8.79997C3.40012 8.69997 6.10012 9.29998 4.60012 9.09998C4.40012 9.29998 4.90012 9.49997 4.90012 9.39997ZM4.10012 5.19998C5.00012 4.89998 6.30012 4.49997 6.80012 5.39997C6.30012 4.89997 6.60012 4.29998 7.00012 5.09998C7.60012 5.89998 7.90012 4.69998 7.50012 4.49998C7.90012 5.09998 8.50012 5.29998 7.80012 4.49998C8.50012 3.59998 6.40012 4.59998 5.90012 4.59998C5.70012 4.69998 3.50012 5.19998 4.10012 5.19998ZM4.70012 4.19998C5.20012 3.79998 6.60012 4.39997 5.70012 3.79997C5.60012 3.69997 3.80012 4.29998 4.70012 4.19998ZM6.60012 4.29997C7.20012 4.29997 6.30012 3.49997 7.10012 3.79997C7.00012 3.39997 6.20012 3.29998 5.90012 3.19998C5.70012 3.49998 6.30012 4.29997 6.60012 4.29997ZM5.80012 2.69998C6.80012 2.59998 5.50012 2.29998 5.60012 2.69998H5.80012ZM4.30012 1.49998C3.60012 0.599975 5.60012 1.69998 4.90012 0.699976C4.30012 0.199976 3.70012 1.19998 4.30012 1.49998ZM13.5001 6.39997C13.8001 5.79997 12.1001 5.59998 13.3001 6.19998C13.4001 6.29998 13.4001 6.49997 13.5001 6.39997Z" fill="url(#paint0_linear_298_806)"/>
<path d="M29 2.4C28.9 2.9 28.8 3.6 28.8 4.7C28.8 4.9 28.7 5 28.5 5C28.3 5 28.2 4.9 28.1 4.7C27.9 4.2 27.7 3.8 27.5 3.6C27.3 3.4 27 3.2 26.6 3.2C26.2 3.1 25.2 3.1 23.7 3.1C23.3 3.1 23.1 3.1 23 3.2C22.9 3.2 22.9 3.4 22.9 3.5V8.2C22.9 8.4 23 8.4 23.2 8.4C23.8 8.4 24.7 8.4 25.9 8.3C26.1 8.3 26.3 8.2 26.4 8.1C26.5 8 26.6 7.7 26.6 7.2C26.6 6.9 26.8 6.8 27.1 6.9C27.3 6.9 27.4 7.1 27.4 7.2C27.2 8.1 27.1 9.4 27.2 10.9C27.2 11.1 27.1 11.2 26.9 11.2C26.7 11.2 26.6 11.1 26.5 10.9C26.3 10 26 9.6 25.5 9.5C25 9.4 24.2 9.4 23.1 9.4C23 9.4 22.9 9.4 22.9 9.5V14.2C22.9 14.5 23 14.8 23.3 14.9C23.5 15 23.9 15.1 24.6 15.2C24.9 15.2 25.1 15.4 25 15.6C25 15.8 24.7 15.9 24.1 15.9C22.5 15.8 21.1 15.8 20 15.9C19.7 15.9 19.6 15.8 19.6 15.5C19.6 15.3 19.7 15.2 20 15.2C20.7 15.1 21 14.5 21 13.4V4.5C21 4 20.9 3.7 20.8 3.4C20.6 3.2 20.3 2.9 19.9 2.7C19.6 2.6 19.5 2.4 19.6 2.2C19.6 2.1 19.7 2 19.8 2C19.9 2 20.1 2 20.3 2C20.7 2.1 21.8 2.1 23.4 2.1C25.3 2.1 27 2.1 28.3 2C28.8 2.2 29 2.2 29 2.4Z" fill="url(#paint1_linear_298_806)"/>
<path d="M35.8 15.6C35.8 15.9 35.6 16 35.3 16C34.3 15.9 33.2 15.9 31.8 16C31.5 16 31.3 16 31.3 16C31.2 16 31.2 15.8 31.2 15.7C31.2 15.5 31.4 15.4 31.8 15.3C32.2 15.2 32.4 14.8 32.4 14.3V4.90001C32.4 4.30001 32.3 3.90001 32.2 3.70001C32 3.40001 31.8 3.20001 31.3 3.10001C31.1 3.00001 31 2.90001 31 2.80001C31 2.60001 31.2 2.40001 31.5 2.30001C32 2.10001 32.5 1.90001 33 1.60001C33.4 1.40001 33.7 1.20001 33.8 1.20001C34.1 1.20001 34.2 1.40001 34.2 1.70001C34.2 1.70001 34.2 2.00001 34.2 2.70001C34.2 3.40001 34.2 4.10001 34.2 4.70001V14C34.2 14.4 34.3 14.7 34.5 14.9C34.7 15.1 35.1 15.2 35.6 15.3C35.6 15.3 35.8 15.4 35.8 15.6Z" fill="url(#paint2_linear_298_806)"/>
<path d="M45.2002 14.9C45.2002 15 44.9002 15.3 44.4002 15.6C43.9002 15.9 43.4002 16 43.1002 16C42.8002 16 42.6002 15.9 42.4002 15.6C42.2002 15.3 42.0002 15.2 42.0002 15.2C41.9002 15.2 41.6002 15.3 41.0002 15.6C40.4002 15.9 39.8002 16 39.2002 16C38.6002 16 38.2002 15.8 37.8002 15.5C37.4002 15.1 37.2002 14.6 37.2002 14C37.2002 12.8 38.6002 11.9 41.3002 11.4C41.8002 11.3 42.0002 11.1 42.0002 10.8V10.1C42.0002 9 41.5002 8.4 40.5002 8.4C40.2002 8.4 39.9002 8.7 39.7002 9.2C39.4002 9.7 39.1002 10 38.6002 10.1C38.0002 10.2 37.7002 9.9 37.7002 9.4C37.7002 9.1 38.1002 8.7 39.0002 8.2C39.9002 7.7 40.7002 7.5 41.6002 7.5C43.0002 7.5 43.7002 8.2 43.7002 9.5V13.8C43.7002 14.2 43.9002 14.5 44.3002 14.5C44.4002 14.5 44.5002 14.5 44.7002 14.4C44.9002 14.4 45.0002 14.3 45.1002 14.3C45.1002 14.5 45.2002 14.6 45.2002 14.9ZM42.0002 12.6C42.0002 12.4 42.0002 12.3 41.9002 12.3C41.8002 12.2 41.7002 12.2 41.5002 12.3C39.8002 12.5 39.0002 13 39.0002 13.8C39.0002 14.6 39.4002 15 40.3002 15C40.6002 15 41.0002 14.9 41.4002 14.8C41.8002 14.6 42.0002 14.5 42.0002 14.3V12.6Z" fill="url(#paint3_linear_298_806)"/>
<path d="M52.9999 13.7C52.9999 14.4 52.6999 15 52.1999 15.4C51.5999 15.8 50.8999 16 49.8999 16C49.2999 16 48.5999 15.9 47.9999 15.8C47.3999 15.7 47.0999 15.6 46.9999 15.5C46.8999 15.4 46.8999 14.9 46.8999 14.1C46.8999 13.7 46.9999 13.5 47.0999 13.5C47.2999 13.5 47.3999 13.6 47.4999 13.8C47.9999 14.7 48.8999 15.2 49.9999 15.2C50.9999 15.2 51.4999 14.9 51.4999 14.2C51.4999 13.9 51.3999 13.7 51.1999 13.5C50.9999 13.3 50.4999 13 49.7999 12.7C48.7999 12.3 48.0999 11.9 47.7999 11.5C47.3999 11.1 47.2999 10.7 47.2999 10C47.2999 9.30001 47.5999 8.70001 48.1999 8.30001C48.6999 7.90001 49.3999 7.70001 50.2999 7.70001C50.8999 7.70001 51.3999 7.70001 51.7999 7.80001C52.2999 7.90001 52.5999 8.00001 52.5999 8.10001C52.6999 8.50001 52.7999 9.00001 52.8999 9.80001C52.8999 9.90001 52.7999 10 52.5999 10C52.3999 10 52.1999 10 52.0999 9.90001C51.5999 9.00001 50.8999 8.60001 49.9999 8.60001C49.0999 8.60001 48.5999 8.90001 48.5999 9.50001C48.5999 9.80001 48.6999 10.1 48.9999 10.3C49.1999 10.5 49.7999 10.7 50.5999 11.1C51.4999 11.5 52.0999 11.8 52.3999 12.1C52.7999 12.5 52.9999 13 52.9999 13.7Z" fill="url(#paint4_linear_298_806)"/>
<path d="M65 15.5C65 15.7 64.8 15.9 64.5 15.9C64 15.9 63.4 15.9 62.6 16C62.2 16.1 61.9 16 61.8 15.9C60.7 14.7 59.8 13.5 59 12.2C58.9 12.1 58.9 12 58.8 12C58.7 12 58.5 12.1 58.2 12.3C57.9 12.5 57.7 12.7 57.7 13.1C57.7 13.3 57.7 13.7 57.7 14.1C57.7 14.5 57.8 14.8 58 15C58.1 15.1 58.5 15.2 59 15.2C59.3 15.2 59.5 15.4 59.5 15.6C59.5 15.8 59.5 15.9 59.4 15.9C59.3 15.9 59.2 15.9 59 15.9C58.3 15.8 57.1 15.9 55.5 16C55.1 16 54.9 16 54.8 15.8C54.8 15.8 54.8 15.7 54.8 15.6C54.8 15.4 55 15.2 55.4 15.1C55.8 15 56 14.6 56 13.8V4.70003C56 4.10003 55.9 3.70002 55.8 3.50002C55.6 3.20002 55.3 3.00002 54.8 2.80002C54.6 2.70002 54.5 2.60002 54.5 2.50002C54.5 2.30002 54.7 2.10002 55 2.00002C55.5 1.80002 56 1.60002 56.5 1.30002C56.9 1.10002 57.1 0.900024 57.2 0.900024C57.5 0.900024 57.6 1.10002 57.6 1.40002C57.6 1.40002 57.6 1.70002 57.6 2.40002C57.6 2.90002 57.6 3.60002 57.6 4.40002V10.9C57.6 11.1 57.6 11.2 57.7 11.2C57.8 11.2 58 11.1 58.2 10.9C58.8 10.5 59.5 9.90003 60.3 9.10003C60.5 8.90003 60.5 8.80003 60.5 8.70003C60.5 8.50003 60.2 8.40002 59.7 8.30002C59.5 8.30002 59.3 8.10002 59.4 7.90002C59.4 7.70002 59.5 7.60003 59.8 7.60003C60.3 7.70003 61 7.70003 62 7.70003C62.7 7.70003 63.3 7.70003 64 7.70003C64.2 7.70003 64.3 7.80003 64.3 8.10003C64.3 8.30003 64.1 8.50002 63.8 8.50002C63.3 8.50002 62.8 8.60002 62.3 8.90002C61.6 9.20002 60.9 9.70002 60.2 10.5C60.1 10.5 60.1 10.6 60.1 10.7C60.1 10.8 60.2 11 60.5 11.4C61.4 12.7 62.2 13.7 62.9 14.4C63.4 14.8 63.9 15 64.3 15C64.6 15 64.8 15 64.9 15.1C65 15.2 65 15.4 65 15.5Z" fill="url(#paint5_linear_298_806)"/>
<defs>
<linearGradient id="paint0_linear_298_806" x1="15.0991" y1="-2.72302" x2="15.0991" y2="24.569" gradientUnits="userSpaceOnUse">
<stop stop-color="#6DC7FF"/>
<stop offset="1" stop-color="#E6ABFF"/>
</linearGradient>
<linearGradient id="paint1_linear_298_806" x1="24.312" y1="-0.128" x2="24.312" y2="16.284" gradientUnits="userSpaceOnUse">
<stop stop-color="#1A6DFF"/>
<stop offset="1" stop-color="#C822FF"/>
</linearGradient>
<linearGradient id="paint2_linear_298_806" x1="33.309" y1="-0.127988" x2="33.309" y2="16.284" gradientUnits="userSpaceOnUse">
<stop stop-color="#1A6DFF"/>
<stop offset="1" stop-color="#C822FF"/>
</linearGradient>
<linearGradient id="paint3_linear_298_806" x1="41.2132" y1="-0.128001" x2="41.2132" y2="16.284" gradientUnits="userSpaceOnUse">
<stop stop-color="#1A6DFF"/>
<stop offset="1" stop-color="#C822FF"/>
</linearGradient>
<linearGradient id="paint4_linear_298_806" x1="49.8889" y1="-0.127987" x2="49.8889" y2="16.284" gradientUnits="userSpaceOnUse">
<stop stop-color="#1A6DFF"/>
<stop offset="1" stop-color="#C822FF"/>
</linearGradient>
<linearGradient id="paint5_linear_298_806" x1="59.783" y1="-0.127976" x2="59.783" y2="16.284" gradientUnits="userSpaceOnUse">
<stop stop-color="#1A6DFF"/>
<stop offset="1" stop-color="#C822FF"/>
</linearGradient>
</defs>
</svg>
