<svg width="811" height="453" viewBox="0 0 811 453" fill="none" xmlns="http://www.w3.org/2000/svg">
<path d="M38.6667 20.8C20 32.1333 3.6 42.2667 2.4 43.3333C0.133333 45.2 0 56.1333 0 236.933C0 364.667 0.533333 430.267 1.33333 433.6C3.2 440.133 8.26667 446 15.2 449.733L20.6667 452.667L402.133 452.533C762.133 452.4 784.133 452.267 791.2 450.133C796.133 448.533 799.867 446.267 802.533 443.2C811.067 433.6 810.667 443.867 810.667 235.333C810.667 56.4 810.533 45.6 808.4 43.7333C804.933 40.6667 737.467 1.06666 734.4 0.266663C731.867 -0.400003 728.133 3.06666 728 6.26666C728 7.06666 734.4 11.4667 742.4 16.1333C779.733 38 796.8 48.4 798.4 50.4C799.6 52 800 92 800 239.6C800 442.933 800.4 432.4 792.667 438.4L788.933 441.333H405.6C24.1333 441.333 22.2667 441.333 18 438.667C15.6 437.2 12.9333 434.267 12.1333 432.267C11.0667 429.6 10.8 377.467 10.9333 239.333L11.3333 50L42 31.7333C58.9333 21.7333 74.6667 12.2667 77.0667 10.6667L81.4667 7.86666L79.0667 4C77.8667 1.73333 75.8667 -3.26335e-06 74.6667 0.13333C73.6 0.13333 57.3333 9.46666 38.6667 20.8Z" fill="#EDEDEE"/>
<path d="M22.6662 56.5333C25.3329 59.8667 339.866 216 343.866 216C345.466 216 345.333 215.467 343.333 213.467C340.266 210.533 30.1329 56.5333 24.3995 55.2C20.9329 54.2667 20.7995 54.4 22.6662 56.5333Z" fill="#EDEDEE"/>
<path d="M622.534 134.8C519.067 186.533 462.8 215.333 463.6 216.133C464.934 217.467 781.2 60.8001 785.2 56.8001C787.067 54.8001 787.067 54.6667 785.067 54.6667C783.867 54.6667 710.667 90.6667 622.534 134.8Z" fill="#EDEDEE"/>
<path d="M392.667 195.733C389.067 197.067 378.267 203.067 368.8 209.2C359.333 215.333 330.133 233.467 304.133 249.733C182 325.333 29.8667 420.4 28.1333 422.133C27.0667 423.067 26.5333 424.267 27.0667 424.8C28 425.733 37.8667 419.6 220 305.867C358.4 219.6 386.133 202.4 392 199.333C394.933 197.867 399.6 196.933 404.267 196.933C413.467 196.933 404.4 191.733 535.333 272.667C546.4 279.467 570 294 588 305.067C606 316 654.267 345.733 695.333 370.933C779.333 422.667 786 426.667 785.067 423.867C784.4 421.867 753.733 402.267 701.333 370.133C652.8 340.533 590.133 302 509.333 252C468.667 226.8 430.133 203.6 423.867 200.267C410.267 193.2 402.667 192.133 392.667 195.733Z" fill="#EDEDEE"/>
</svg>
