<svg width="36" height="36" viewBox="0 0 36 36" fill="none" xmlns="http://www.w3.org/2000/svg">
<path d="M0 4C0 1.791 1.791 0 4 0H32C34.209 0 36 1.791 36 4V32C36 34.209 34.209 36 32 36H4C1.791 36 0 34.209 0 32V4Z" fill="#FF5722"/>
<path d="M3 3V33H33V3H3ZM17.691 25L16.929 22.09H13.013L12.252 25H9.215L13.658 10.781H16.285L20.758 25H17.691ZM24.85 25H22.077V14.434H24.85V25ZM24.552 12.754C24.281 13.034 23.916 13.174 23.453 13.174C22.99 13.174 22.625 13.034 22.354 12.754C22.083 12.474 21.949 12.122 21.949 11.699C21.949 11.269 22.086 10.918 22.359 10.644C22.632 10.37 22.998 10.234 23.453 10.234C23.908 10.234 24.273 10.371 24.547 10.644C24.821 10.917 24.957 11.269 24.957 11.699C24.957 12.122 24.822 12.474 24.552 12.754Z" fill="#1C0802"/>
<path d="M13.6392 19.697H16.2952L14.9672 14.629L13.6392 19.697Z" fill="#1C0802"/>
</svg>
