<svg width="17" height="17" viewBox="0 0 17 17" fill="none" xmlns="http://www.w3.org/2000/svg">
<path d="M8.47782 1.65187C4.70834 1.65187 1.65188 4.70833 1.65188 8.47781C1.65188 12.2473 4.70834 15.3037 8.47782 15.3037C12.2473 15.3037 15.3038 12.2473 15.3038 8.47781C15.3038 4.70833 12.2473 1.65187 8.47782 1.65187Z" stroke="black" stroke-width="2" stroke-miterlimit="10"/>
<path d="M7.43908 7.43909H8.6262V11.7424" stroke="black" stroke-width="2" stroke-linecap="round" stroke-linejoin="round"/>
<path d="M6.99392 11.8908H10.2585" stroke="black" stroke-width="2" stroke-miterlimit="10" stroke-linecap="round"/>
<path d="M8.49139 5.09761C8.49353 5.09673 8.49558 5.09563 8.49752 5.09433C8.50141 5.09173 8.50473 5.0884 8.50731 5.08455C8.50731 5.08455 8.50731 5.08455 8.50731 5.08455C8.50859 5.08263 8.50969 5.08057 8.51058 5.07842C8.51237 5.07409 8.51328 5.06948 8.51328 5.06485C8.51328 5.06253 8.51306 5.06022 8.5126 5.05793C8.51123 5.05105 8.50786 5.04473 8.5029 5.03977C8.49793 5.03481 8.49161 5.03143 8.48474 5.03006C8.48245 5.02961 8.48013 5.02938 8.47782 5.02938C8.47318 5.02938 8.46857 5.03029 8.46425 5.03208L8.47782 5.06485M8.49139 5.09761L8.49139 5.09761M8.49139 5.09761L8.47782 5.06485M8.49139 5.09761L8.49139 5.09761M8.47782 5.06485L8.46425 5.03208C8.46209 5.03297 8.46004 5.03407 8.45811 5.03536C8.45426 5.03793 8.45093 5.04125 8.44833 5.04514C8.44833 5.04514 8.44833 5.04514 8.44833 5.04514C8.44703 5.04708 8.44594 5.04914 8.44505 5.05127C8.44328 5.05556 8.44235 5.06017 8.44235 5.06485C8.44235 5.06719 8.44258 5.0695 8.44303 5.07176C8.44439 5.07859 8.44774 5.08493 8.45274 5.08992C8.45774 5.09492 8.46407 5.09827 8.4709 5.09963C8.47316 5.10008 8.47548 5.10031 8.47782 5.10031C8.4825 5.10031 8.48711 5.09939 8.49139 5.09761M8.47782 5.06485L8.49139 5.09761" fill="black" stroke="black" stroke-width="2"/>
</svg>
