<svg width="30" height="40" viewBox="0 0 30 40" fill="none" xmlns="http://www.w3.org/2000/svg">
<path d="M14.6501 20.898C13.6521 19.289 12.9281 17.955 11.9251 15.443C10.2291 11.2 22.2401 7.36602 17.3701 -0.000976562C19.4811 5.08802 9.79306 8.23402 8.89306 12.472C8.07006 16.37 14.6451 20.898 14.6501 20.898Z" fill="#D43A02"/>
<path d="M14.878 13.27C14.686 15.786 17.107 17.127 17.177 18.965C17.233 20.461 15.73 21.708 15.73 21.708C15.73 21.708 18.458 21.172 19.309 18.89C20.254 16.356 17.475 14.621 17.761 12.592C18.028 10.654 23.792 7.04901 23.792 7.04901C23.792 7.04901 15.311 7.61101 14.878 13.27Z" fill="#D43A02"/>
<path d="M23.0841 21.055C24.8381 20.661 26.3171 21.778 26.3171 23.065C26.3171 25.966 22.2961 28.708 22.2961 28.708C22.2961 28.708 28.5211 27.966 28.5211 23.203C28.5211 20.053 25.4641 19.266 23.0841 21.055ZM20.1291 23.395C20.1291 23.395 22.0701 22.012 22.5871 21.493C17.8241 22.504 6.94911 22.64 6.94911 21.762C6.94911 20.953 10.4561 20.124 10.4561 20.124C10.4561 20.124 2.68311 20.012 2.68311 22.305C2.68311 24.695 12.8581 24.866 20.1291 23.395Z" fill="url(#paint0_linear_298_778)"/>
<path d="M18.9349 25.571C14.4259 27.07 6.12093 26.591 8.58093 24.578C7.38293 24.578 5.60693 25.541 5.60693 26.467C5.60693 28.324 14.5889 29.758 21.2369 27.039L18.9349 25.571Z" fill="url(#paint1_linear_298_778)"/>
<path d="M9.68621 28.739C8.05021 28.739 6.99121 29.793 6.99121 30.561C6.99121 32.952 16.7512 33.193 20.6182 30.766L18.1602 29.134C15.2712 30.404 8.01421 30.579 9.68621 28.739Z" fill="url(#paint2_linear_298_778)"/>
<path d="M27.281 32.632C27.281 31.696 26.226 31.255 25.848 31.044C28.076 36.417 3.531 36 3.531 32.828C3.531 32.107 5.338 31.401 7.008 31.735L5.588 30.896C2.26 30.374 0 31.837 0 33.017C0 38.52 27.281 38.255 27.281 32.632Z" fill="url(#paint3_linear_298_778)"/>
<path d="M30 34.604C25.854 38.699 15.341 40.191 4.76904 37.661C15.341 42.164 29.95 39.628 30 34.604Z" fill="url(#paint4_linear_298_778)"/>
<defs>
<linearGradient id="paint0_linear_298_778" x1="13.6771" y1="17.174" x2="21.7371" y2="39.318" gradientUnits="userSpaceOnUse">
<stop stop-color="#5C65D6"/>
<stop offset="0.999" stop-color="#464EB0"/>
</linearGradient>
<linearGradient id="paint1_linear_298_778" x1="10.4979" y1="18.77" x2="18.2959" y2="40.196" gradientUnits="userSpaceOnUse">
<stop stop-color="#5C65D6"/>
<stop offset="0.999" stop-color="#464EB0"/>
</linearGradient>
<linearGradient id="paint2_linear_298_778" x1="9.69821" y1="19.455" x2="17.5902" y2="41.14" gradientUnits="userSpaceOnUse">
<stop stop-color="#5C65D6"/>
<stop offset="0.999" stop-color="#464EB0"/>
</linearGradient>
<linearGradient id="paint3_linear_298_778" x1="9.03" y1="20.198" x2="16.861" y2="41.712" gradientUnits="userSpaceOnUse">
<stop stop-color="#5C65D6"/>
<stop offset="0.999" stop-color="#464EB0"/>
</linearGradient>
<linearGradient id="paint4_linear_298_778" x1="11.725" y1="20.582" x2="19.228" y2="41.197" gradientUnits="userSpaceOnUse">
<stop stop-color="#5C65D6"/>
<stop offset="0.999" stop-color="#464EB0"/>
</linearGradient>
</defs>
</svg>
