<svg width="811" height="877" viewBox="0 0 811 877" fill="none" xmlns="http://www.w3.org/2000/svg">
<path d="M100.985 3.72644C94.8584 8.98729 92.1945 13.5905 89.5307 23.0162C87.1332 31.3459 87 43.402 87 264.796C87 470.627 87.2664 497.808 88.9979 498.904C90.0634 499.781 91.9282 499.123 92.9937 497.589C94.7252 495.178 94.9916 465.366 94.9916 261.508V28.0579L99.5202 20.605L104.049 13.1521H403.867H703.685L707.947 19.509L712.342 25.8659L713.008 262.385L713.674 498.685L717.404 499.342L721 500L720.734 263.481L720.334 27.1811L716.605 17.9746C714.607 12.9329 710.611 6.79527 707.681 4.38405C702.486 7.09295e-06 700.888 7.09295e-06 403.734 7.09295e-06C133.618 0.219209 104.582 0.438411 100.985 3.72644Z" fill="#EDEDEE"/>
<path d="M38.6667 444.8C20 456.133 3.6 466.267 2.4 467.333C0.133333 469.2 0 480.133 0 660.933C0 788.667 0.533333 854.267 1.33333 857.6C3.2 864.133 8.26667 870 15.2 873.733L20.6667 876.667L402.133 876.533C762.133 876.4 784.133 876.267 791.2 874.133C796.133 872.533 799.867 870.267 802.533 867.2C811.067 857.6 810.667 867.867 810.667 659.333C810.667 480.4 810.533 469.6 808.4 467.733C804.933 464.667 737.467 425.067 734.4 424.267C731.867 423.6 728.133 427.067 728 430.267C728 431.067 734.4 435.467 742.4 440.133C779.733 462 796.8 472.4 798.4 474.4C799.6 476 800 516 800 663.6C800 866.933 800.4 856.4 792.667 862.4L788.933 865.333H405.6C24.1333 865.333 22.2667 865.333 18 862.667C15.6 861.2 12.9333 858.267 12.1333 856.267C11.0667 853.6 10.8 801.467 10.9333 663.333L11.3333 474L42 455.733C58.9333 445.733 74.6667 436.267 77.0667 434.667L81.4667 431.867L79.0667 428C77.8667 425.733 75.8667 424 74.6667 424.133C73.6 424.133 57.3333 433.467 38.6667 444.8Z" fill="#EDEDEE"/>
<path d="M22.6662 480.533C25.3329 483.867 339.866 640 343.866 640C345.466 640 345.333 639.467 343.333 637.467C340.266 634.533 30.1329 480.533 24.3995 479.2C20.9329 478.267 20.7995 478.4 22.6662 480.533Z" fill="#EDEDEE"/>
<path d="M622.534 558.8C519.067 610.533 462.8 639.333 463.6 640.133C464.934 641.467 781.2 484.8 785.2 480.8C787.067 478.8 787.067 478.667 785.067 478.667C783.867 478.667 710.667 514.667 622.534 558.8Z" fill="#EDEDEE"/>
<path d="M392.667 619.733C389.067 621.067 378.267 627.067 368.8 633.2C359.333 639.333 330.133 657.467 304.133 673.733C182 749.333 29.8667 844.4 28.1333 846.133C27.0667 847.067 26.5333 848.267 27.0667 848.8C28 849.733 37.8667 843.6 220 729.867C358.4 643.6 386.133 626.4 392 623.333C394.933 621.867 399.6 620.933 404.267 620.933C413.467 620.933 404.4 615.733 535.333 696.667C546.4 703.467 570 718 588 729.067C606 740 654.267 769.733 695.333 794.933C779.333 846.667 786 850.667 785.067 847.867C784.4 845.867 753.733 826.267 701.333 794.133C652.8 764.533 590.133 726 509.333 676C468.667 650.8 430.133 627.6 423.867 624.267C410.267 617.2 402.667 616.133 392.667 619.733Z" fill="#EDEDEE"/>
</svg>
