<svg width="419" height="646" viewBox="0 0 419 646" fill="none" xmlns="http://www.w3.org/2000/svg">
<path d="M52.3513 3.66146C49.1846 8.39623 47.8078 12.5391 46.431 21.0223C45.1919 28.519 45.123 39.3695 45.123 238.624C45.123 423.872 45.2607 448.335 46.1557 449.321C46.7064 450.11 47.6701 449.519 48.2209 448.138C49.1158 445.967 49.2535 419.137 49.2535 235.665V25.5598L51.594 18.8522L53.9346 12.1446H208.894H363.853L366.056 17.8658L368.328 23.5869L368.672 236.454L369.016 449.124L370.944 449.716L372.803 450.308L372.665 237.441L372.458 24.7706L370.531 16.4848C369.498 11.9473 367.433 6.42341 365.919 4.25331C363.234 0.307671 362.408 0.307671 208.825 0.307671C69.2171 0.504953 54.21 0.702235 52.3513 3.66146Z" fill="#EDEDEE"/>
<path d="M19.9851 421.485C10.3371 427.357 1.86068 432.607 1.24046 433.159C0.0689142 434.126 0 439.791 0 533.461C0 599.639 0.275657 633.626 0.689142 635.353C1.65394 638.737 4.27268 641.777 7.85622 643.711L10.6817 645.231L207.845 645.162C393.914 645.093 405.285 645.024 408.937 643.918C411.487 643.089 413.416 641.915 414.795 640.326C419.205 635.353 418.999 640.672 418.999 532.633C418.999 439.929 418.93 434.334 417.827 433.366C416.035 431.778 381.165 411.261 379.58 410.847C378.27 410.501 376.341 412.297 376.272 413.955C376.272 414.37 379.58 416.649 383.714 419.067C403.01 430.396 411.831 435.784 412.658 436.82C413.279 437.649 413.485 458.373 413.485 534.843C413.485 640.188 413.692 634.731 409.695 637.839L407.765 639.359H209.637C12.4735 639.359 11.5087 639.359 9.30342 637.978C8.06296 637.218 6.68468 635.698 6.27119 634.662C5.71988 633.28 5.58205 606.27 5.65097 534.705L5.85771 436.613L21.708 427.149C30.4601 421.968 38.592 417.064 39.8324 416.235L42.1066 414.784L40.8661 412.781C40.2459 411.607 39.2122 410.709 38.592 410.778C38.0407 410.778 29.6331 415.613 19.9851 421.485Z" fill="#EDEDEE"/>
<path d="M11.7154 439.998C13.0937 441.725 175.662 522.616 177.73 522.616C178.557 522.616 178.488 522.34 177.454 521.304C175.869 519.784 15.5746 439.998 12.6113 439.307C10.8196 438.824 10.7506 438.893 11.7154 439.998Z" fill="#EDEDEE"/>
<path d="M321.76 480.547C268.283 507.35 239.201 522.271 239.615 522.685C240.304 523.376 403.768 442.209 405.836 440.136C406.801 439.1 406.801 439.031 405.767 439.031C405.147 439.031 367.313 457.682 321.76 480.547Z" fill="#EDEDEE"/>
<path d="M202.952 512.116C201.092 512.807 195.51 515.915 190.617 519.093C185.724 522.271 170.632 531.665 157.193 540.093C94.0679 579.261 15.4368 628.514 14.5409 629.412C13.9896 629.895 13.714 630.517 13.9896 630.793C14.472 631.277 19.5717 628.099 113.708 569.175C185.241 524.481 199.576 515.57 202.608 513.981C204.124 513.221 206.536 512.738 208.948 512.738C213.703 512.738 209.017 510.044 276.691 551.975C282.411 555.498 294.608 563.027 303.912 568.761C313.215 574.425 338.162 589.83 359.388 602.886C402.804 629.688 406.249 631.76 405.767 630.31C405.422 629.274 389.572 619.119 362.489 602.471C337.404 587.136 305.014 567.172 263.252 541.267C242.234 528.211 222.317 516.192 219.078 514.465C212.049 510.804 208.121 510.251 202.952 512.116Z" fill="#EDEDEE"/>
</svg>
