<svg width="811" height="827" viewBox="0 0 811 827" fill="none" xmlns="http://www.w3.org/2000/svg">
<path d="M100.985 3.35379C94.8584 8.08855 92.1945 12.2315 89.5307 20.7146C87.1332 28.2113 87 39.0618 87 238.317C87 423.564 87.2664 448.027 88.9979 449.014C90.0634 449.803 91.9282 449.211 92.9937 447.83C94.7252 445.66 94.9916 418.829 94.9916 235.357V25.2521L99.5202 18.5445L104.049 11.8369H403.867H703.685L707.947 17.5581L712.342 23.2793L713.008 236.146L713.674 448.816L717.404 449.408L721 450L720.734 237.133L720.334 24.4629L716.605 16.1771C714.607 11.6396 710.611 6.11573 707.681 3.94563C702.486 -7.21216e-06 700.888 -7.21216e-06 403.734 -7.21216e-06C133.618 0.197275 104.582 0.394557 100.985 3.35379Z" fill="#EDEDEE"/>
<path d="M38.6667 394.8C20 406.133 3.6 416.267 2.4 417.333C0.133333 419.2 0 430.133 0 610.933C0 738.667 0.533333 804.267 1.33333 807.6C3.2 814.133 8.26667 820 15.2 823.733L20.6667 826.667L402.133 826.533C762.133 826.4 784.133 826.267 791.2 824.133C796.133 822.533 799.867 820.267 802.533 817.2C811.067 807.6 810.667 817.867 810.667 609.333C810.667 430.4 810.533 419.6 808.4 417.733C804.933 414.667 737.467 375.067 734.4 374.267C731.867 373.6 728.133 377.067 728 380.267C728 381.067 734.4 385.467 742.4 390.133C779.733 412 796.8 422.4 798.4 424.4C799.6 426 800 466 800 613.6C800 816.933 800.4 806.4 792.667 812.4L788.933 815.333H405.6C24.1333 815.333 22.2667 815.333 18 812.667C15.6 811.2 12.9333 808.267 12.1333 806.267C11.0667 803.6 10.8 751.467 10.9333 613.333L11.3333 424L42 405.733C58.9333 395.733 74.6667 386.267 77.0667 384.667L81.4667 381.867L79.0667 378C77.8667 375.733 75.8667 374 74.6667 374.133C73.6 374.133 57.3333 383.467 38.6667 394.8Z" fill="#EDEDEE"/>
<path d="M22.6662 430.533C25.3329 433.867 339.866 590 343.866 590C345.466 590 345.333 589.467 343.333 587.467C340.266 584.533 30.1329 430.533 24.3995 429.2C20.9329 428.267 20.7995 428.4 22.6662 430.533Z" fill="#EDEDEE"/>
<path d="M622.534 508.8C519.067 560.533 462.8 589.333 463.6 590.133C464.934 591.467 781.2 434.8 785.2 430.8C787.067 428.8 787.067 428.667 785.067 428.667C783.867 428.667 710.667 464.667 622.534 508.8Z" fill="#EDEDEE"/>
<path d="M392.667 569.733C389.067 571.067 378.267 577.067 368.8 583.2C359.333 589.333 330.133 607.467 304.133 623.733C182 699.333 29.8667 794.4 28.1333 796.133C27.0667 797.067 26.5333 798.267 27.0667 798.8C28 799.733 37.8667 793.6 220 679.867C358.4 593.6 386.133 576.4 392 573.333C394.933 571.867 399.6 570.933 404.267 570.933C413.467 570.933 404.4 565.733 535.333 646.667C546.4 653.467 570 668 588 679.067C606 690 654.267 719.733 695.333 744.933C779.333 796.667 786 800.667 785.067 797.867C784.4 795.867 753.733 776.267 701.333 744.133C652.8 714.533 590.133 676 509.333 626C468.667 600.8 430.133 577.6 423.867 574.267C410.267 567.2 402.667 566.133 392.667 569.733Z" fill="#EDEDEE"/>
</svg>
