<svg width="100%" height="100%" viewBox="0 0 419 522" fill="none" xmlns="http://www.w3.org/2000/svg">
<path d="M52.3513 2.43188C49.1846 5.8652 47.8078 8.86935 46.431 15.0207C45.1919 20.4568 45.123 28.3248 45.123 172.81C45.123 307.138 45.2607 324.877 46.1557 325.592C46.7064 326.165 47.6701 325.735 48.2209 324.734C49.1158 323.16 49.2535 303.705 49.2535 170.664V18.311L51.594 13.4471L53.9346 8.58324H208.894H363.853L366.056 12.7318L368.328 16.8804L368.672 171.236L369.016 325.449L370.944 325.879L372.803 326.308L372.665 171.952L372.458 17.7387L370.531 11.7304C369.498 8.44018 367.433 4.43465 365.919 2.86105C363.234 -4.46588e-05 362.408 -4.46588e-05 208.825 -4.46588e-05C69.2171 0.14301 54.21 0.286065 52.3513 2.43188Z" fill="#EDEDEE"/>
<path d="M19.9851 297.485C10.3371 303.357 1.86068 308.607 1.24046 309.159C0.0689142 310.126 0 315.791 0 409.461C0 475.639 0.275657 509.626 0.689142 511.353C1.65394 514.737 4.27268 517.777 7.85622 519.711L10.6817 521.231L207.845 521.162C393.914 521.093 405.285 521.024 408.937 519.918C411.487 519.089 413.416 517.915 414.795 516.326C419.205 511.353 418.999 516.672 418.999 408.633C418.999 315.929 418.93 310.334 417.827 309.366C416.035 307.778 381.165 287.261 379.58 286.847C378.27 286.501 376.341 288.297 376.272 289.955C376.272 290.37 379.58 292.649 383.714 295.067C403.01 306.396 411.831 311.784 412.658 312.82C413.279 313.649 413.485 334.373 413.485 410.843C413.485 516.188 413.692 510.731 409.695 513.839L407.765 515.359H209.637C12.4735 515.359 11.5087 515.359 9.30342 513.978C8.06296 513.218 6.68468 511.698 6.27119 510.662C5.71988 509.28 5.58205 482.27 5.65097 410.705L5.85771 312.613L21.708 303.149C30.4601 297.968 38.592 293.064 39.8324 292.235L42.1066 290.784L40.8661 288.781C40.2459 287.607 39.2122 286.709 38.592 286.778C38.0407 286.778 29.6331 291.613 19.9851 297.485Z" fill="#EDEDEE"/>
<path d="M11.7154 315.998C13.0937 317.725 175.662 398.616 177.73 398.616C178.557 398.616 178.488 398.34 177.454 397.304C175.869 395.784 15.5746 315.998 12.6113 315.307C10.8196 314.824 10.7506 314.893 11.7154 315.998Z" fill="#EDEDEE"/>
<path d="M321.76 356.547C268.283 383.35 239.201 398.271 239.615 398.685C240.304 399.376 403.768 318.209 405.836 316.136C406.801 315.1 406.801 315.031 405.767 315.031C405.147 315.031 367.313 333.682 321.76 356.547Z" fill="#EDEDEE"/>
<path d="M202.952 388.116C201.092 388.807 195.51 391.915 190.617 395.093C185.724 398.271 170.632 407.665 157.193 416.093C94.0679 455.261 15.4367 504.514 14.5409 505.412C13.9896 505.895 13.7139 506.517 13.9896 506.793C14.4719 507.277 19.5716 504.099 113.708 445.175C185.241 400.481 199.576 391.57 202.608 389.981C204.124 389.221 206.536 388.738 208.948 388.738C213.703 388.738 209.017 386.044 276.691 427.975C282.41 431.498 294.608 439.027 303.912 444.761C313.215 450.425 338.162 465.83 359.388 478.886C402.804 505.688 406.249 507.76 405.767 506.31C405.422 505.274 389.572 495.119 362.489 478.471C337.404 463.136 305.014 443.172 263.252 417.267C242.233 404.211 222.317 392.192 219.078 390.465C212.049 386.804 208.121 386.251 202.952 388.116Z" fill="#EDEDEE"/>
</svg>
