<svg width="20" height="15" viewBox="0 0 20 15" fill="none" xmlns="http://www.w3.org/2000/svg">
<path d="M18.4091 0H0.681818C0.500989 0 0.327566 0.0718343 0.1997 0.1997C0.0718342 0.327566 0 0.500989 0 0.681818V14.3182C0 14.499 0.0718342 14.6724 0.1997 14.8003C0.327566 14.9282 0.500989 15 0.681818 15H18.4091C18.5899 15 18.7633 14.9282 18.8912 14.8003C19.0191 14.6724 19.0909 14.499 19.0909 14.3182V0.681818C19.0909 0.500989 19.0191 0.327566 18.8912 0.1997C18.7633 0.0718343 18.5899 0 18.4091 0ZM9.96392 8.72003C9.84426 8.81305 9.69702 8.86355 9.54545 8.86355C9.39389 8.86355 9.24665 8.81305 9.12699 8.72003L2.45241 3.52884L3.28935 2.45241L9.54545 7.31804L15.8016 2.45241L16.6385 3.52884L9.96392 8.72003Z" fill="#EDEDEE"/>
</svg>
