<svg width="17" height="15" viewBox="0 0 17 15" fill="none" xmlns="http://www.w3.org/2000/svg">
<path d="M12.9413 14.9999C12.2375 14.9999 11.2488 14.7635 9.76821 13.9954C7.96783 13.0579 6.57526 12.1924 4.78462 10.534C3.05815 8.93183 2.218 7.89454 1.04214 5.90768C-0.286237 3.66435 -0.0597916 2.48845 0.193336 1.98587C0.494782 1.3852 0.93974 1.02593 1.51487 0.66934C1.84154 0.4706 2.18723 0.300235 2.54757 0.160406C2.58363 0.146008 2.61716 0.13228 2.64709 0.119892C2.82558 0.0452256 3.09602 -0.0676106 3.43857 0.0529266C3.66718 0.132615 3.87127 0.295675 4.19074 0.588647C4.84592 1.18865 5.74124 2.52494 6.07153 3.1812C6.29329 3.62351 6.44005 3.91547 6.44041 4.24293C6.44041 4.62631 6.23271 4.92196 5.98067 5.24105C5.93343 5.30098 5.88655 5.35824 5.84112 5.41382C5.56672 5.74864 5.5065 5.84541 5.54617 6.01818C5.62657 6.36539 6.22622 7.399 7.21169 8.31207C8.19716 9.22514 9.27818 9.74679 9.65355 9.82113C9.84754 9.85963 9.95391 9.80137 10.326 9.53753C10.3794 9.49969 10.4342 9.46052 10.4915 9.42134C10.8759 9.15583 11.1795 8.96799 11.5827 8.96799H11.5848C11.9357 8.96799 12.236 9.10929 12.7336 9.34232C13.3827 9.64635 14.865 10.467 15.5152 11.0761C15.8314 11.372 16.0077 11.5609 16.0939 11.7728C16.2237 12.0919 16.1015 12.342 16.0218 12.5094C16.0084 12.5372 15.9936 12.5677 15.9781 12.6015C15.8264 12.9355 15.6418 13.2558 15.4268 13.5584C15.0435 14.0908 14.6552 14.503 14.0068 14.7832C13.6739 14.9295 13.3096 15.0035 12.9413 14.9999Z" fill="#EDEDEE"/>
</svg>
