<svg width="86" height="45" viewBox="0 0 86 45" fill="none" xmlns="http://www.w3.org/2000/svg">
<path fill-rule="evenodd" clip-rule="evenodd" d="M0.000452848 41.0431H2.81214V29.9045L7.20321 39.616C7.70059 40.7833 8.41514 41.2157 9.79869 41.2157C11.1822 41.2157 11.8541 40.7828 12.368 39.616L16.7372 29.9045V41.0431H19.5707V29.9045C19.5707 28.8235 19.1378 28.3033 18.2294 28.0221C16.0881 27.3735 14.6605 27.9359 14.0118 29.3844L9.70803 38.9877L5.55498 29.3844C4.92769 27.9359 3.47821 27.3735 1.31564 28.0221C0.428508 28.3033 -0.00391002 28.823 -0.00391002 29.9045L-0.00439453 41.0431H0.000452848ZM21.9112 31.9808H24.7447V38.102C24.7234 38.4477 24.8528 39.2267 26.393 39.2476C27.1928 39.2694 32.4924 39.2476 32.535 39.2476V31.9372H35.3685V41.9516C35.3685 44.4172 32.3145 44.9572 30.8912 44.9795H21.981V43.0986H30.9139C32.7309 42.9037 32.5147 41.9957 32.5147 41.6927V40.9569H26.5229C23.7325 40.935 21.9369 39.7023 21.9161 38.2964V31.9798L21.9112 31.9808ZM82.6892 24.8862C80.9595 24.8425 79.6176 25.0161 78.493 25.4921C78.1691 25.623 77.6495 25.623 77.6068 26.0331C77.7799 26.2052 77.8007 26.4869 77.9524 26.7254C78.2118 27.1583 78.6665 27.7415 79.0771 28.044C79.5318 28.3906 79.9861 28.7362 80.4611 29.0392C81.3046 29.5579 82.2563 29.8609 83.0779 30.3801C83.554 30.6831 84.0296 31.0723 84.5056 31.3971C84.748 31.5702 84.8949 31.8519 85.1979 31.9595V31.894C85.0466 31.7001 85.003 31.419 84.8522 31.2018C84.6355 30.9861 84.4193 30.7907 84.2026 30.575C83.5758 29.7315 82.7968 28.9956 81.9533 28.3906C81.261 27.9145 79.7476 27.2659 79.4664 26.466L79.4237 26.4224C79.8988 26.3788 80.4611 26.2057 80.9159 26.0758C81.6517 25.8819 82.3217 25.9245 83.0779 25.7301C83.4246 25.6429 83.7702 25.5353 84.1168 25.4272V25.2332C83.7275 24.844 83.4464 24.3248 83.0358 23.9573C81.9329 23.0057 80.721 22.0754 79.4664 21.2969C78.7959 20.8645 77.9306 20.5828 77.217 20.2158C76.9567 20.0859 76.5248 20.021 76.3735 19.8048C75.9833 19.3297 75.7676 18.7019 75.4864 18.1391C74.8596 16.9494 74.2536 15.6304 73.7131 14.3758C73.3238 13.5323 73.0853 12.6888 72.6102 11.9102C70.3822 8.23323 67.9593 6.00569 64.2392 3.82082C63.4393 3.36659 62.4877 3.17123 61.476 2.93369L59.8539 2.84643C59.5073 2.69518 59.1617 2.28409 58.8587 2.08921C57.6259 1.31067 54.4463 -0.376342 53.5373 1.85167C52.9532 3.25752 54.4027 4.64154 54.8947 5.35561C55.2631 5.85299 55.7382 6.41533 55.9985 6.97767C56.144 7.34512 56.1924 7.73488 56.3442 8.12415C56.6898 9.07576 57.0146 10.136 57.4688 11.0231C57.7112 11.4773 57.9657 11.9539 58.2687 12.3645C58.4418 12.602 58.7448 12.7106 58.8092 13.0999C58.5063 13.5328 58.4854 14.1809 58.3123 14.7224C57.5333 17.1666 57.8363 20.1945 58.9392 21.9891C59.2858 22.5297 60.1026 23.7198 61.2108 23.2651C62.1842 22.8758 61.9671 21.643 62.2482 20.5615C62.3137 20.3021 62.27 20.1291 62.3995 19.9555V19.9992L63.2866 21.7943C63.957 22.854 65.1253 23.9573 66.0983 24.6932C66.617 25.0825 67.0281 25.7534 67.6767 25.9909V25.9255H67.634C67.5041 25.7316 67.3092 25.6443 67.1362 25.4931C66.7469 25.1038 66.3145 24.6278 66.0115 24.1953C65.1035 22.9844 64.3037 21.643 63.5896 20.259C63.243 19.5886 62.94 18.8531 62.6598 18.1827C62.5289 17.9229 62.5289 17.5331 62.3132 17.4042C61.9884 17.8792 61.5133 18.2913 61.2743 18.875C60.8632 19.8048 60.8206 20.9512 60.6693 22.1409C60.5821 22.1627 60.6208 22.1409 60.5821 22.1845C59.8908 22.0119 59.6523 21.2974 59.3929 20.6924C58.7443 19.1566 58.6357 16.6911 59.198 14.9173C59.3493 14.463 59.9989 13.0354 59.7395 12.603C59.6086 12.1919 59.1772 11.9543 58.9387 11.6295C58.6575 11.2185 58.3555 10.6998 58.1606 10.2455C57.6419 9.03359 57.3826 7.69319 56.8197 6.48174C56.5594 5.91941 56.1057 5.33525 55.7377 4.81655C55.3266 4.2324 54.8734 3.82131 54.5486 3.12954C54.4405 2.892 54.2892 2.50224 54.4623 2.2424C54.5049 2.06934 54.5922 2.00486 54.7643 1.96123C55.0455 1.7237 55.8463 2.02619 56.1275 2.15514C56.9273 2.47994 57.5978 2.78244 58.2682 3.23619C58.5712 3.4524 58.896 3.86348 59.2853 3.97207H59.74C60.4323 4.12332 61.2103 4.0157 61.8585 4.20961C63.005 4.57804 64.0428 5.11808 64.9736 5.70271C67.8066 7.49783 70.1432 10.0502 71.7217 13.1003C71.981 13.5977 72.0891 14.052 72.3276 14.5712C72.7823 15.6313 73.3447 16.7124 73.7979 17.7513C74.2527 18.7678 74.6851 19.8067 75.3337 20.6502C75.6585 21.1044 76.9557 21.342 77.5394 21.58C77.9723 21.7739 78.6423 21.9484 79.0325 22.186C79.7674 22.6402 80.5028 23.1594 81.1946 23.6568C81.5402 23.9156 82.6223 24.4566 82.6867 24.8881L82.6892 24.8862ZM60.632 6.09053C60.3332 6.08789 60.0353 6.12423 59.7458 6.19864V6.24226H59.7885C59.9615 6.58839 60.2645 6.82642 60.4807 7.1294L60.9786 8.16778L61.0213 8.12415C61.3242 7.90794 61.476 7.56182 61.476 7.04311C61.3461 6.89186 61.3247 6.74013 61.2166 6.58888C61.0867 6.37267 60.8055 6.26408 60.632 6.0915V6.09053Z" fill="#00678C"/>
<path fill-rule="evenodd" clip-rule="evenodd" d="M37.5278 41.0432H45.6604C46.612 41.0432 47.5209 40.8493 48.2559 40.5026C49.4886 39.9403 50.0728 39.1841 50.0728 38.1888V36.1125C50.0728 35.3127 49.4024 34.555 48.062 34.0363C47.3697 33.7769 46.5044 33.6252 45.6609 33.6252H42.2432C41.0967 33.6252 40.5562 33.2786 40.4045 32.5223C40.3831 32.436 40.3831 32.3492 40.3831 32.263V30.9865C40.3831 30.9211 40.3831 30.8353 40.4045 30.749C40.5557 30.1649 40.8587 30.0131 41.8588 29.9055H50.1857V28.0231H42.2694C41.1229 28.0231 40.5174 28.0886 39.9764 28.2616C38.3107 28.7803 37.5753 29.6025 37.5753 31.051V32.6959C37.5753 33.9708 39.003 35.0533 41.4254 35.3127C41.6848 35.3345 41.9659 35.3345 42.2471 35.3345H45.1674C45.2755 35.3345 45.3831 35.3345 45.4694 35.3563C46.3565 35.4426 46.7458 35.5938 47.0051 35.9177C47.1782 36.0907 47.2218 36.2425 47.2218 36.4373V38.0807C47.2218 38.2746 47.0919 38.5354 46.8326 38.7512C46.5732 38.9669 46.1612 39.1186 45.6206 39.1404C45.5125 39.1404 45.4485 39.1622 45.3395 39.1622H37.5278V41.0432ZM67.6783 37.7777C67.6783 39.7023 69.1326 40.7833 72.0267 41.0005C72.3079 41.0223 72.5672 41.0432 72.8484 41.0432H80.2024V39.1622H72.7839C71.1391 39.1622 70.5123 38.7512 70.5123 37.7564V28.0231H67.673V37.7782L67.6783 37.7777ZM51.8674 37.8635V31.1591C51.8674 29.4503 53.0784 28.4114 55.4368 28.0876C55.6962 28.0658 55.9555 28.044 56.193 28.044H61.5566C61.8377 28.044 62.0763 28.0658 62.3574 28.0876C64.7149 28.4114 65.904 29.4498 65.904 31.1591V37.8635C65.904 39.2476 65.4071 39.9835 64.2383 40.4813L67.0064 42.9895H63.741L61.4916 40.9569L59.22 41.0868H56.1921C55.6373 41.084 55.085 41.0116 54.5482 40.8711C52.7546 40.3727 51.8674 39.4216 51.8674 37.8635ZM54.9166 37.7133C54.9166 37.7995 54.9651 37.8854 54.9821 37.9944C55.1333 38.7725 55.8683 39.2054 56.9929 39.2054H59.5457L57.2101 37.0855H60.4755L62.53 38.946C62.9202 38.7293 63.1578 38.4264 63.2441 38.0371C63.2659 37.9508 63.2659 37.8432 63.2659 37.7559V31.3317C63.2659 31.2454 63.2659 31.1596 63.2441 31.0724C63.0928 30.3374 62.3579 29.9268 61.2546 29.9268H56.9934C55.7388 29.9268 54.9171 30.4674 54.9171 31.3317L54.9166 37.7133Z" fill="#CE8B2C"/>
</svg>
