<svg width="519" height="534" viewBox="0 0 519 534" fill="none" xmlns="http://www.w3.org/2000/svg">
<path d="M387.239 388.819C390.634 360.542 389.616 356.393 410.679 360.974L416.027 361.444C432.223 362.181 453.409 358.839 465.856 353.056C492.65 340.624 508.538 319.867 482.118 325.321C421.852 337.753 417.709 317.347 417.709 317.347C481.346 222.926 507.948 103.067 484.986 73.7285C422.357 -6.29734 313.947 31.5463 312.133 32.5288L311.555 32.6366C299.648 30.1648 286.322 28.6886 271.351 28.4466C244.079 27.9984 223.386 35.5962 207.688 47.5026C207.688 47.5026 14.2907 -32.1746 23.2879 147.705C25.2014 185.97 78.1374 437.253 141.274 361.354C164.35 333.6 186.65 310.134 186.65 310.134C197.724 317.491 210.982 321.243 224.887 319.895L225.962 318.979C225.625 322.425 225.774 325.796 226.392 329.786C210.13 347.958 214.908 351.15 182.391 357.842C149.492 364.624 168.82 376.694 181.436 379.849C196.734 383.675 232.125 389.094 256.045 355.617L255.092 359.437C261.472 364.541 261.041 396.125 261.946 418.69C262.851 441.256 264.362 462.316 268.962 474.73C273.562 487.143 278.99 519.123 321.726 509.964C357.443 502.31 384.75 491.294 387.239 388.819Z" fill="black" stroke="black" stroke-width="44.8063"/>
<path d="M482.124 325.318C421.852 337.75 417.709 317.344 417.709 317.344C481.346 222.917 507.948 103.056 484.991 73.7208C422.362 -6.30033 313.947 31.5445 312.138 32.527L311.555 32.6312C299.648 30.1594 286.322 28.6868 271.344 28.4424C244.072 27.9955 223.385 35.592 207.688 47.496C207.688 47.496 14.287 -32.1776 23.2818 147.701C25.1953 185.968 78.1302 437.251 141.269 361.352C164.346 333.598 186.643 310.132 186.643 310.132C197.718 317.489 210.976 321.242 224.875 319.894L225.954 318.977C225.619 322.423 225.772 325.795 226.387 329.785C210.122 347.956 214.901 351.148 182.386 357.84C149.485 364.622 168.813 376.693 181.432 379.847C196.731 383.673 232.124 389.093 256.039 355.615L255.085 359.435C261.458 364.539 265.933 392.638 265.183 418.11C264.433 443.582 263.932 461.069 268.954 474.728C273.975 488.388 278.98 519.121 321.724 509.962C357.441 502.308 375.95 482.474 378.525 449.388C380.352 425.867 384.487 429.343 384.748 408.314L388.065 398.358C391.889 366.474 388.672 356.187 410.677 360.971L416.024 361.441C432.22 362.178 453.417 358.836 465.858 353.053C492.647 340.621 508.535 319.864 482.121 325.318H482.124Z" fill="#336791"/>
<path d="M258.627 343.595C256.967 402.925 259.044 462.668 264.849 477.188C270.658 491.707 283.089 519.949 325.837 510.791C361.55 503.134 374.544 488.318 380.183 455.614C384.336 431.551 392.342 364.726 393.369 351.034M207.39 46.1713C207.39 46.1713 13.8569 -32.9284 22.8541 146.951C24.7676 185.218 77.706 436.509 140.843 360.606C163.916 332.849 184.782 311.079 184.782 311.079M311.926 31.7343C305.227 33.8347 419.581 -10.0694 484.569 72.9724C507.525 102.309 480.923 222.171 417.287 316.6" stroke="white" stroke-width="14.9354" stroke-linecap="round" stroke-linejoin="round"/>
<path d="M417.286 316.599C417.286 316.599 421.433 337.011 481.705 324.571C508.114 319.116 492.221 339.876 465.438 352.315C443.457 362.516 394.177 365.13 393.371 351.034C391.3 314.663 419.307 325.712 417.286 316.599ZM417.286 316.599C415.459 308.391 402.934 300.336 394.649 280.248C387.415 262.715 295.443 128.259 420.155 148.228C424.723 147.283 387.628 29.6051 270.916 27.6916C154.231 25.7781 158.059 171.189 158.059 171.189" stroke="white" stroke-width="14.9354" stroke-linecap="round" stroke-linejoin="bevel"/>
<path d="M225.962 329.037C209.694 347.209 214.478 350.401 181.961 357.095C149.06 363.877 168.39 375.947 181.006 379.1C196.304 382.928 231.698 388.348 255.612 354.862C262.895 344.667 255.569 328.399 245.565 324.252C240.732 322.251 234.269 319.741 225.962 329.037Z" stroke="white" stroke-width="14.9354" stroke-linecap="round" stroke-linejoin="round"/>
<path d="M224.896 328.722C223.257 318.036 228.407 305.322 233.926 290.448C242.22 268.13 261.356 245.809 246.048 175.015C234.638 122.26 158.106 164.036 158.058 171.19C158.011 178.34 161.519 207.447 156.779 241.341C150.594 285.57 184.922 322.976 224.452 319.149" stroke="white" stroke-width="14.9354" stroke-linecap="round" stroke-linejoin="round"/>
<path d="M206.686 170.117C206.341 172.561 211.159 179.079 217.441 179.951C223.713 180.825 229.081 175.731 229.421 173.29C229.761 170.847 224.949 168.156 218.665 167.281C212.39 166.406 207.019 167.68 206.688 170.117H206.686Z" fill="white" stroke="white" stroke-width="4.97848"/>
<path d="M397.706 165.136C398.047 167.58 393.235 174.098 386.951 174.969C380.675 175.844 375.307 170.749 374.963 168.308C374.632 165.865 379.445 163.174 385.722 162.299C391.999 161.425 397.366 162.698 397.706 165.137V165.136Z" fill="white" stroke="white" stroke-width="2.48984"/>
<path d="M420.154 148.229C421.188 167.392 416.027 180.445 415.376 200.846C414.413 230.499 429.513 264.439 406.76 298.42" stroke="white" stroke-width="14.9354" stroke-linecap="round" stroke-linejoin="round"/>
</svg>
