<svg width="726" height="854" viewBox="0 0 726 854" fill="none" xmlns="http://www.w3.org/2000/svg">
<path d="M653.475 677.197L260.173 790.52C248.141 793.976 236.621 783.864 239.139 772.045L379.64 116.429C382.285 104.184 399.693 102.221 405.155 113.613L665.336 651.853C666.468 654.268 667.055 656.902 667.055 659.568C667.055 662.235 666.468 664.869 665.336 667.284C664.204 669.699 662.555 671.835 660.505 673.54C658.455 675.246 656.055 676.48 653.475 677.154V677.197ZM720.888 650.488L419.704 27.213C415.869 19.4619 410.028 12.8802 402.786 8.1528C395.545 3.42541 387.169 0.725131 378.531 0.332992C369.872 -0.261791 361.213 1.49379 353.47 5.41418C345.727 9.33456 339.187 15.2741 334.541 22.605L7.79992 538.189C-2.35475 554.232 -2.14143 574.029 8.35457 589.944L168.056 830.968C177.571 845.346 194.083 853.666 211.192 853.666C216.056 853.666 220.963 852.984 225.741 851.618L689.315 718.072C703.523 713.933 715.128 704.162 721.229 691.192C727.288 678.221 727.203 663.373 720.931 650.445L720.888 650.488Z" fill="#00BFA5"/>
</svg>
