<svg xmlns="http://www.w3.org/2000/svg" width="1306.667" height="1306.667" viewBox="0 0 980 980">
  <path d="M847.5 1c-12.2 1.8-26.8 7.6-34.4 13.7-10.7 8.6-32.1 28.4-54.6 50.4-40.7 39.9-57.8 55.9-59.6 55.9-1 0-17.9-6.2-37.6-13.9-45.6-17.7-74.4-28.2-86-31.6-8.4-2.4-9.4-2.5-12.1-1.1-8 4.1-15.8 18-29 52l-7.8 20-24-.3c-13.1-.2-31.3-.6-40.3-1l-16.3-.6-10.2-22.5c-15.8-34.6-19.5-41.1-25.9-45-4.4-2.7-8.1-2.5-18.4 1.1-26.3 9.3-96.9 39.1-118.5 50-17.2 8.8-23 13.2-25.4 19.4l-1.7 4.7 4.1 12.1c2.2 6.7 8.4 22.3 13.7 34.7l9.6 22.4-17.8 17.9c-19.1 19.2-35.5 34.4-38.8 35.9-1.7.7-8.9-1.7-34.4-11.8l-32.3-12.7-7 3.4c-8 3.9-10.6 6.5-15.2 15.8-8.2 16.2-41.9 100.7-52.2 130.6-6.3 18.3-.2 23.6 49.8 43.5l20.8 8.2v80.3l-27.2 11.8c-28.6 12.4-36.7 16.9-40.6 22.7-2.1 3.1-2.3 4.3-1.9 10.5.6 9 3.4 17.1 16.9 49 22.4 53 29 69.6 28.4 71.9-.6 2.5-15.2 18.3-41.1 44.6l-16.3 16.5-25.5 77C9.3 925.1 0 955.1 0 961.2c0 5.9 9.2 16 16.3 17.9 3.5.9 5.7.5 18.6-3.1 8-2.3 52.4-16.7 98.5-32.1l83.9-28 31-30.5c17-16.8 31.5-30.3 32.1-30 .6.2 24.1 9.6 52.1 20.9 73.9 29.6 78.2 31 85.4 27.2 6.6-3.4 13.3-15.8 27.1-50.8l8.3-20.7h23.1c12.7 0 30.8.3 40.1.7l17 .6 6.4 14.6c3.5 8 9.5 20.9 13.2 28.6 13.1 27.3 17.3 30 37.1 23.4 18.4-6.2 73.7-29.1 105.8-43.9 33.4-15.3 36.6-17.8 36.4-28.4-.2-7.4-2.8-15-16.4-47-5.5-13-10-23.7-10-23.9s9.1-9.5 20.3-20.8c11.2-11.2 23.3-24 27-28.5l6.6-8.1 26 10.4c48 19.2 53.7 19 64-1.5 12.2-24.5 46.8-111.2 52.6-131.9 5.1-18.2-2.9-24.8-53.8-44.4l-16.8-6.4.7-39c.4-21.5 1-39.7 1.4-40.5.5-.8 10.2-5.7 21.7-10.9 44.1-19.8 51.2-25.7 46.7-39.4-3.9-12.2-21.7-55.1-42.2-101.9l-6-13.7 48.1-48.8c59.1-59.9 67.2-69.3 72.7-84 9.3-25 4.1-60.3-12.3-81.8C956.3 57.1 928.5 30 916 20 900.8 7.9 890.1 3.3 871.6 1c-9-1.1-16.6-1.1-24.1 0m30 46.6c8.6 4.1 22.7 16.3 36 31 31.4 34.7 30.5 47.4-5.5 86.2-7.8 8.4-14.6 15.2-15.1 15-1.2-.4-92.9-92-92.9-92.8 0-.3 7.8-8.3 17.3-17.7C837.8 49.1 842.6 46 856.4 44c7.9-1.1 13.5-.1 21.1 3.6m-106.9 73.6c11.8 9 25.4 23.5 25.4 27 0 .8-11.8 13.8-26.3 28.9-35.5 36.9-198.2 201.1-312.4 315.2L364.5 585 348 568.5 331.5 552 452 431.4C589 294.3 765.7 119 766.9 119c.5 0 2.1 1 3.7 2.2m-142.3 21.2c22.4 9 33.7 14.1 33.7 15.1 0 2.3-51.4 55.6-89.7 93L546.2 276l-15.4-2.6c-21.1-3.6-49.7-4.4-68.8-1.9-49.8 6.3-94.8 29.3-130.7 66.9-32.3 33.8-50.6 71-58 117.8-2.7 17-2.4 56 .5 72 7.6 41.4 30.3 84 61.2 114.8 22.2 22.2 52.9 41.4 85 53.3 26.2 9.7 61.2 14.3 89.5 11.8 51.4-4.7 98.6-26.5 134.3-62.2 17.7-17.7 29.1-34.2 42.6-61.4 17.1-34.6 21.1-53.4 20.9-99 0-20.7-.4-26.1-2.6-39l-2.5-15 58.6-58.7c32.3-32.3 59-58.4 59.3-58 2.6 2.6 29.9 69 29.9 72.6 0 1.3-12.8 7.7-28.5 14.1-16.4 6.8-25.4 11.6-29 15.6-1.9 2.2-3.5 4.5-3.6 5.2 0 .6-.1 29.5-.1 64.1l-.1 63 4.5 4c5 4.5 17.7 11.1 39.9 20.5 8 3.4 15.8 7.3 17.4 8.5l2.9 2.3-17.8 43.9c-9.8 24.2-18.1 44.2-18.4 44.6-.4.3-7.4-2-15.7-5.3-27.2-10.8-39.6-15-45.9-15.6-6.2-.6-6.2-.5-11.6 3.9-3 2.4-10.1 10-15.8 16.8-13.6 16.5-32.2 36.1-43.6 46.2-25.8 22.8-27.9 26.5-24.1 41.3.9 3.2 5.4 15.1 10.1 26.4s8.8 22 9.1 23.7c.5 3 .3 3.1-9.4 7.6-28.3 13.3-76.9 34.1-78.5 33.6-.5-.2-5.8-11.2-11.7-24.3-11.9-26.9-16.4-34.4-22.5-37.9-6-3.5-10.6-3.9-25.1-2.1-10.4 1.3-21.9 1.7-56.8 1.6-47.4-.1-48.3 0-52.5 5.3-2.8 3.6-9.9 18.3-15.7 32.6-2.6 6.3-6.3 14.8-8.3 18.8-3.3 6.8-3.7 7.3-6.1 6.7-3.8-1-56.1-21.5-72.9-28.7-16.8-7.1-15.9-4.9-9.1-22.5 2.2-6 5.9-15.5 8.1-21.2 6.8-17.9 8-27.9 4.3-35.2-.9-1.6-9.5-9.5-19.3-17.7-11-9.3-23.7-21.2-33.7-31.7-37.9-39.9-37.3-39.5-47.9-37.1-3.5.9-16.6 5.6-29 10.6-12.5 5-24 9.3-25.6 9.6-2.7.6-3.1.2-5.9-5.3-6.9-13.7-36.6-82.1-35.9-82.7.1-.2 9.1-4.3 19.8-9.1 34.5-15.4 42.5-20.5 45.1-28.3 1.2-3.7 1-11.2-1.1-32.7-.7-6.4-1-27.4-.8-50.5.2-31.3 0-40.2-1-42.7-2.2-5.1-10.9-10-35.7-20.3-14.6-6-23.9-10.4-26.2-12.2-1.4-1.1-1.7-.4 17-47.3 14.6-36.7 17.1-42.5 18.7-42.5 1 0 18.4 6.2 31.8 11.4 20.5 8 32.3 10.2 38 7.2 3.5-1.8 11.9-10.7 21.2-22.1 11.4-14.1 28-30.4 46.8-46.2 9.4-7.9 17.9-15.7 18.7-17.3 2-4 1.9-13.2-.4-21-1-3.6-5.3-15.1-9.4-25.6-4.2-10.5-7.8-20.7-7.9-22.5-.3-3.4-.3-3.4 11.7-9.4 17.7-8.9 66.1-28.5 74.2-30.1 2.8-.5 3-.3 7.5 9.3 2.5 5.4 7.4 16.1 10.7 23.8 7.1 16.3 11.8 23 18.1 26.3 5.1 2.6 10 2.6 36.6.1 12.1-1.1 18.9-1 47.5.3 32.6 1.6 40.1 1.4 44.6-1 4.5-2.5 10.2-12.5 19.8-35.2 5.9-13.8 11-24.6 12.7-26.7 1-1.2 4.2-.1 44.1 16.1m217.3 52c7.9 8 14.4 14.8 14.4 15.3 0 .4-97.9 98.7-217.5 218.3L425 645.5l-15-15-15-15L544.5 465c181.4-182.5 284.1-285 285.6-285 .6 0 7.6 6.5 15.5 14.4M504 316c1.2.8-18.1 20.5-93.9 96.1-70.8 70.7-95.5 94.8-96.2 93.8-1.4-2.3-1-26.6.6-37.4 4-26.2 11.2-47.7 22.3-66.6 17-28.8 44.1-53.8 74.7-69.1 16.3-8.2 36.7-14.9 51-16.8 8.8-1.1 39.7-1.1 41.5 0m159.9 178.5c.3 25.7-5.4 47.7-19.6 75.3-14.4 28.2-31.5 47.4-58 65.1-31.3 21-59.1 28.7-99.6 27.9l-14.8-.3 95.3-95.9 95.3-96 .6 7c.4 3.8.7 11.4.8 16.9M226.2 708.4c4.1 3.8 4.1 4.7.5 10.1-1.1 1.6-19.8 20.9-41.6 42.8L145.6 801l-15.3-15.2c-8.4-8.4-15.3-15.8-15.3-16.4 0-1.6 27.5-28.2 34-33 3-2.2 8.7-5 12.5-6.4 3.9-1.3 18.7-7.4 33-13.6s26.5-11.3 27-11.3c.6-.1 2.7 1.5 4.7 3.3m42.3 42.6c1.7 1.1 4.6 3.8 6.6 6.1l3.6 4.2-7.8 19.4c-12.3 30.7-13.9 32.9-44.1 63.1L207.5 863l-15-15-15-15 30-30.1c32-32.1 55-53.9 56.9-53.9.6 0 2.5.9 4.1 2m-138.7 97.4c19.4 19.5 35.2 35.9 35.2 36.4 0 .6-.8 1.3-1.7 1.7C154.4 890.1 60 921 57.9 921c-1.5 0 5.5-21.2 32.3-99.3 1.6-4.8 3.3-8.7 3.7-8.7s16.6 15.9 35.9 35.4"/>
</svg>