<svg width="129" height="80" viewBox="0 0 129 80" fill="none" xmlns="http://www.w3.org/2000/svg">
<path d="M107.4 24.9C107.2 20.5 107.8 16.6 105.8 13.3C101 5.09999 88.9998 0.299988 64.9998 0.299988C40.9998 0.299988 28.3998 5.09999 23.5998 13.4C21.6998 16.8 21.8998 20.6 21.5998 25C21.3998 28.5 19.7998 32.2 20.4998 36.2C21.2998 41.4 21.5998 46.6 22.3998 51.4C22.9998 55.3 28.3998 58.6 28.8998 62.3C30.2998 72.5 40.8998 77.2 64.8998 77.2V78H64.2998H64.3998H64.9998V77.2C88.9998 77.2 99.1998 72.5 100.5 62.3C101 58.5 106 55.3 106.6 51.4C107.4 46.6 107.7 41.4 108.5 36.2C109.2 32.2 107.6 28.4 107.4 24.9Z" fill="#EFCCA3"/>
<path d="M64.5999 28.5C68.8999 28.6 71.8999 31.3 74.6999 33.8C77.9999 36.7 83.5999 38.7 85.8999 41.2C88.1999 43.7 91.1999 46.2 92.2999 50.1C93.3999 54 93.6999 59 93.6999 60.3C93.6999 61.6 94.3999 61.3 96.3999 60.3C101.1 58 106.3 51.8 106.3 51.8C105.7 55.7 100.6 59.2 100.1 62.9C98.8999 73.1 88.9999 78 64.4999 78H64.3999H64.9999" fill="#CCAC8D"/>
<path d="M80.3998 20.7C81.2998 23.8 84.4998 34.3 78.2998 30.8C78.2998 30.8 80.8998 32.3 82.4998 38C84.1998 43.7 88.2998 44.4 88.2998 44.4C88.2998 44.4 94.9998 45.7 99.9998 41.4C104.2 37.8 104.9 31.4 103.1 26.5C101.3 21.7 98.0998 20.2 93.3998 19.2C88.6998 18.1 79.2998 17.2 80.3998 20.7Z" fill="#CCAC8D"/>
<path d="M92.3 40.9C97.1601 40.9 101.1 36.9601 101.1 32.1C101.1 27.2399 97.1601 23.3 92.3 23.3C87.4399 23.3 83.5 27.2399 83.5 32.1C83.5 36.9601 87.4399 40.9 92.3 40.9Z" fill="black"/>
<path d="M90.0002 30.5C91.2705 30.5 92.3002 29.4702 92.3002 28.2C92.3002 26.9297 91.2705 25.9 90.0002 25.9C88.7299 25.9 87.7002 26.9297 87.7002 28.2C87.7002 29.4702 88.7299 30.5 90.0002 30.5Z" fill="white"/>
<path d="M78.8998 31.7C78.8998 31.7 86.7998 37.1 91.0998 42.4C95.3998 47.7 95.2998 48.7 95.2998 48.7L92.1998 50.1C92.1998 50.1 87.7998 41.8 82.3998 38.7C76.8998 35.6 76.2998 33 76.2998 33L78.8998 31.7Z" fill="#EFCCA3"/>
<path d="M64.9 28.5C60.6 28.6 57.4 31.3 54.5 33.8C51.2 36.7 45.4 38.7 43.1 41.2C40.8 43.7 37.7 46.2 36.6 50.1C35.5 54 35.1 59 35.1 60.3C35.1 61.6 35.3 61.7 32.4 60.3C27.7 58.1 22.5 51.8 22.5 51.8C23.1 55.7 28.2 59.2 28.7 62.9C30.1 73.1 40 78 64.5 78H64.6H65" fill="#CCAC8D"/>
<path d="M88.0998 45.4C83.2998 39.5 75.5998 34 64.8998 34H64.7998C54.0998 34 46.3998 39.5 41.5998 45.4C36.5998 51.5 36.9998 53.9 36.9998 59.7C36.9998 80.7 44.3998 74.7 49.2998 77.3C54.2998 79.8 59.4998 79 64.7998 79H64.8998C70.2998 79 75.3998 79.7 80.3998 77.2C85.2998 74.7 92.6998 80.9 92.6998 59.9C92.7998 54.1 93.0998 51.5 88.0998 45.4Z" fill="#56332B"/>
<path d="M64.3998 39.2C64.3998 39.2 63.6998 48.9 62.2998 50.8L64.8998 50.2L64.3998 39.2Z" fill="#442823"/>
<path d="M65.1001 39.2C65.1001 39.2 65.8001 48.9 67.2001 50.8L64.6001 50.2L65.1001 39.2Z" fill="#442823"/>
<path d="M56.7001 36.9C55.7001 34.6 59.3001 30.9 65.0001 30.8C70.7001 30.8 74.3001 34.5 73.3001 36.9C72.3001 39.3 68.7001 40 65.0001 40.1C61.4001 40 57.7001 39.3 56.7001 36.9Z" fill="#56332B"/>
<path d="M64.9999 39.2C64.9999 38.8 68.3999 38.7 70.1999 37.5C70.1999 37.5 66.4999 38.7 65.6999 38.2C64.8999 37.8 64.6999 36.6 64.6999 36.6C64.6999 36.6 64.3999 37.8 63.7999 38.2C63.0999 38.6 58.8999 37.5 58.8999 37.5C58.8999 37.5 64.4999 38.9 64.4999 39.2C64.4999 39.5 64.3999 40.5 64.3999 41.2C64.3999 43.7 64.3999 49.9 64.7999 50.4C65.3999 51.3 65.1999 43.7 65.1999 41.2C65.0999 40.4 65.0999 39.6 64.9999 39.2Z" fill="black"/>
<path d="M65.1999 52.6C66.8999 52.6 69.8999 53.8 72.5999 55.7C69.9999 52.8 66.8999 50.8 65.1999 50.8C63.3999 50.8 59.5999 53 56.8999 56.2C59.6999 54 63.2999 52.6 65.1999 52.6Z" fill="#7F4A41"/>
<path d="M64.5 70.3C60.7 70.3 57 69.1 53.6 68.2C52.9 68 52.2 68.5 51.5 68.3C45.2 66.3 40.1 62.9 37 58.6C37 58.9 37 59.3 37 59.6C37 80.6 44.4 74.7 49.3 77.2C54.3 79.7 59.5 78.9 64.8 78.9H64.9C70.3 78.9 75.4 79.6 80.4 77.1C85.3 74.6 92.7 80.7 92.7 59.7C92.7 58.9 92.7 58.1 92.8 57.4C89.9 62.1 84.6 65.8 78 68C77.4 68.2 76 67.7 75.4 67.8C71.8 69 68.6 70.3 64.5 70.3Z" fill="#442823"/>
<path d="M54.9999 59C54.9999 59 52.4999 66.5 54.1999 69.8L51.8999 68.8C51.8999 68.8 53.5999 61.2 54.9999 59Z" fill="#442823"/>
<path d="M74.7998 59C74.7998 59 77.2998 66.5 75.5998 69.8L77.8998 68.8C77.8998 68.8 76.0998 61.2 74.7998 59Z" fill="#442823"/>
<path d="M48.6 20.7C47.7 23.8 44.5 34.3 50.7 30.8C50.7 30.8 48.1 32.3 46.5 38C44.9 43.7 40.7 44.4 40.7 44.4C40.7 44.4 34 45.7 29 41.4C24.8 37.8 24.1 31.4 25.9 26.5C27.7 21.6 30.9 20.2 35.6 19.2C40.3 18.1 49.6 17.2 48.6 20.7Z" fill="#CCAC8D"/>
<path d="M64.9002 50.8C67.6002 50.8 76.0002 56.6 76.1002 63.7C76.1002 63.6 76.1002 63.5 76.1002 63.3C76.1002 55.9 69.3002 50 64.9002 50C60.5002 50 53.7002 56 53.7002 63.3C53.7002 63.4 53.7002 63.5 53.7002 63.7C53.8002 56.6 62.2002 50.8 64.9002 50.8Z" fill="black"/>
<path d="M67.0828 36.9544C67.5106 36.8441 67.6898 36.1044 67.4829 35.3022C67.2761 34.5 66.7615 33.9392 66.3337 34.0495C65.9059 34.1598 65.7268 34.8996 65.9336 35.7017C66.1405 36.5039 66.655 37.0647 67.0828 36.9544Z" fill="#331712"/>
<path d="M61.9426 36.9395C62.3646 37.0704 62.9056 36.5351 63.1511 35.7439C63.3966 34.9527 63.2535 34.2051 62.8315 34.0742C62.4095 33.9433 61.8684 34.4786 61.6229 35.2698C61.3775 36.061 61.5206 36.8086 61.9426 36.9395Z" fill="#331712"/>
<path d="M37.1999 40.9C42.06 40.9 45.9999 36.9601 45.9999 32.1C45.9999 27.2399 42.06 23.3 37.1999 23.3C32.3398 23.3 28.3999 27.2399 28.3999 32.1C28.3999 36.9601 32.3398 40.9 37.1999 40.9Z" fill="black"/>
<path d="M39.4997 30.5C40.77 30.5 41.7997 29.4702 41.7997 28.2C41.7997 26.9297 40.77 25.9 39.4997 25.9C38.2295 25.9 37.1997 26.9297 37.1997 28.2C37.1997 29.4702 38.2295 30.5 39.4997 30.5Z" fill="white"/>
<path d="M67.5002 32.2C67.5002 32.1 65.2002 33.2 64.6002 33.3C64.0002 33.2 61.7002 32.1 61.7002 32.2C61.7002 32.2 63.6002 32.2 64.6002 32.2C65.6002 32.2 67.5002 32.2 67.5002 32.2Z" fill="#7F4A41"/>
<path d="M49.9998 31.7C49.9998 31.7 42.0998 37.1 37.7998 42.4C33.4998 47.7 33.5998 48.7 33.5998 48.7L36.6998 50.1C36.6998 50.1 41.0998 41.8 46.4998 38.7C51.8998 35.6 52.5998 33 52.5998 33L49.9998 31.7Z" fill="#EFCCA3"/>
<path d="M32.7 15.7C32.7 15.7 30 23.1 24 26.2C24 26.2 33.4 25.1 32.7 15.7Z" fill="#CCAC8D"/>
<path d="M95.7999 15.7C95.7999 15.7 98.4999 23.1 104.5 26.2C104.5 26.2 95.0999 25.1 95.7999 15.7Z" fill="#CCAC8D"/>
<path d="M78.6998 29.5C78.6998 29.5 72.7998 23.3 64.8998 23.1C64.7998 23.1 65.0998 23.1 64.9998 23.1C64.8998 23.1 65.0998 23.1 65.0998 23.1C57.0998 23.3 51.2998 29.5 51.2998 29.5C58.1998 24.7 64.0998 24.8 65.0998 24.8C64.9998 24.8 71.7998 24.7 78.6998 29.5Z" fill="#CCAC8D"/>
<path d="M71.8001 16.5C71.8001 16.5 68.8001 12.3 64.8001 12.2H64.9001H65.0001C62.0001 12.3 58.1001 16.5 58.1001 16.5C61.5001 13.2 65.0001 13.3 65.0001 13.3C65.0001 13.3 68.3001 13.2 71.8001 16.5Z" fill="#CCAC8D"/>
<path d="M37.2 47.2C37.2 47.2 32.5 49.5 29.1 48.1H29C26 46.4 24.5 41.3 24.5 41.3C24.5 41.3 27.5 50.3 37.2 47.2Z" fill="#CCAC8D"/>
<path d="M92 47.2C92 47.2 96.7 49.5 100.1 48.1C104.1 46.4 104.7 41.3 104.7 41.3C104.7 41.3 101.7 50.3 92 47.2Z" fill="#CCAC8D"/>
<path d="M42.6001 15.2C45.2001 14.7 49.5001 14.6 52.9001 15.7C57.2001 17.2 53.7001 22.7 54.6001 23C55.5001 23.3 56.7001 19.2 64.7001 19.6C72.8001 20 73.7001 23.6 74.8001 23C75.9001 22.4 73.7001 13 85.8001 15.2C85.8001 15.2 73.1001 11.8 73.7001 21C73.7001 21 66.4001 15.4 56.2001 20.4C56.3001 20.4 58.9001 11.8 42.6001 15.2Z" fill="#CCAC8D"/>
<path d="M86.8999 15.2C87.0999 15.2 87.1999 15.3 87.2999 15.3C87.3999 15.3 87.1999 15.2 86.8999 15.2Z" fill="#CCAC8D"/>
<path d="M39.1 2.89996C39.1 2.89996 28.3 16.5 26.7 21.7C25.1 27 23.9 48.7 22.5 51.8L17.5 30.4L26.7 8.09996L39.1 2.89996Z" fill="#CCAC8D"/>
<path d="M89.8999 2.89996C89.8999 2.89996 100.7 16.5 102.3 21.7C103.9 27 105.1 48.7 106.5 51.8L111.5 30.4L102.3 8.09996L89.8999 2.89996Z" fill="#CCAC8D"/>
<path d="M89.4 2.89997C89.4 2.89997 101 12.6 104.4 23.8C107.8 35 106.4 48.6 109 50.3C112.7 52.7 116.9 38.4 118.3 36.9C120.5 34.5 127.8 28.4 128.3 27.3C128.8 26.2 113.5 9.49997 106.8 6.19997C98.7 2.39997 88.7 2.09997 89.4 2.89997Z" fill="#56332B"/>
<path d="M99.2998 8.89996C99.2998 8.89996 113 26.4 112.8 48.2L118.3 37C118.2 37 113.4 22.7 99.2998 8.89996Z" fill="#442823"/>
<path d="M39.1 2.89997C39.1 2.89997 27.5 12.6 24.1 23.8C20.7 35 22.1 48.6 19.5 50.3C15.8 52.7 11.6 38.4 10.2 36.9C7.99995 34.5 0.699954 28.4 0.199954 27.3C-0.300046 26.2 15 9.49997 21.7 6.19997C29.8 2.39997 39.8 2.09997 39.1 2.89997Z" fill="#56332B"/>
<path d="M29.1998 8.89996C29.1998 8.89996 15.4998 26.4 15.6998 48.2L10.2998 37C10.2998 37 15.0998 22.7 29.1998 8.89996Z" fill="#442823"/>
<path d="M21.7998 48.6C21.7998 48.6 22.7998 54 24.3998 55.7C25.9998 57.4 24.8998 54.4 24.8998 54.4C24.8998 54.4 23.1998 53.5 23.4998 46.6C23.7998 39.7 21.7998 48.6 21.7998 48.6Z" fill="#CCAC8D"/>
<path d="M107.1 48.6C107.1 48.6 106.1 54 104.5 55.7C102.9 57.4 104 54.4 104 54.4C104 54.4 105.7 53.5 105.4 46.6C105.1 39.7 107.1 48.6 107.1 48.6Z" fill="#CCAC8D"/>
<path d="M54.5002 45.3C54.942 45.3 55.3002 44.9418 55.3002 44.5C55.3002 44.0582 54.942 43.7 54.5002 43.7C54.0584 43.7 53.7002 44.0582 53.7002 44.5C53.7002 44.9418 54.0584 45.3 54.5002 45.3Z" fill="#442823"/>
<path d="M49.9001 50.1C50.3419 50.1 50.7001 49.7418 50.7001 49.3C50.7001 48.8582 50.3419 48.5 49.9001 48.5C49.4583 48.5 49.1001 48.8582 49.1001 49.3C49.1001 49.7418 49.4583 50.1 49.9001 50.1Z" fill="#442823"/>
<path d="M48.4001 45.3C48.8419 45.3 49.2001 44.9418 49.2001 44.5C49.2001 44.0582 48.8419 43.7 48.4001 43.7C47.9583 43.7 47.6001 44.0582 47.6001 44.5C47.6001 44.9418 47.9583 45.3 48.4001 45.3Z" fill="#442823"/>
<path d="M74.0002 45.3C74.442 45.3 74.8002 44.9418 74.8002 44.5C74.8002 44.0582 74.442 43.7 74.0002 43.7C73.5584 43.7 73.2002 44.0582 73.2002 44.5C73.2002 44.9418 73.5584 45.3 74.0002 45.3Z" fill="#442823"/>
<path d="M78.6003 50.1C79.0421 50.1 79.4003 49.7418 79.4003 49.3C79.4003 48.8582 79.0421 48.5 78.6003 48.5C78.1585 48.5 77.8003 48.8582 77.8003 49.3C77.8003 49.7418 78.1585 50.1 78.6003 50.1Z" fill="#442823"/>
<path d="M80.1003 45.3C80.5421 45.3 80.9003 44.9418 80.9003 44.5C80.9003 44.0582 80.5421 43.7 80.1003 43.7C79.6585 43.7 79.3003 44.0582 79.3003 44.5C79.3003 44.9418 79.6585 45.3 80.1003 45.3Z" fill="#442823"/>
</svg>
