<svg width="39" height="38" viewBox="0 0 39 38" fill="none" xmlns="http://www.w3.org/2000/svg">
<path d="M20.047 1.21318e-05C18.492 0.00501213 17.414 0.142012 16.111 0.367012C12.263 1.03701 11.562 2.44401 11.562 5.03701V9.00001H20.562V11H11.22H6.86995C4.23395 11 1.92695 12.242 1.19595 15.219C0.369951 18.636 0.332951 20.776 1.19595 24.344C1.85095 27.005 3.29395 29 5.93095 29H9.56295V23.896C9.56295 20.93 12.249 18 15.327 18H22.563C25.086 18 27.563 16.138 27.563 13.623V5.03701C27.563 2.59801 25.8039 0.774012 23.3449 0.365012C23.4059 0.359012 21.589 -0.00598787 20.047 1.21318e-05ZM15.063 4.00001C15.884 4.00001 16.563 4.67701 16.563 5.50201C16.563 6.33501 15.884 7.00001 15.063 7.00001C14.226 7.00001 13.563 6.33601 13.563 5.50201C13.563 4.68001 14.226 4.00001 15.063 4.00001Z" fill="url(#paint0_linear_298_782)"/>
<path d="M19.078 38C20.633 37.995 21.711 37.858 23.014 37.633C26.862 36.963 27.563 35.556 27.563 32.963V29H18.563V27H27.906H32.256C34.892 27 37.199 25.758 37.93 22.781C38.756 19.364 38.793 17.224 37.93 13.656C37.274 10.995 35.831 9 33.194 9H29.562V14.104C29.562 17.07 26.876 20 23.798 20H16.562C14.039 20 11.562 21.862 11.562 24.377V32.963C11.562 35.402 13.321 37.226 15.78 37.635C15.719 37.641 17.536 38.006 19.078 38ZM24.063 34C23.242 34 22.563 33.323 22.563 32.498C22.563 31.665 23.242 31 24.063 31C24.9 31 25.563 31.664 25.563 32.498C25.563 33.32 24.899 34 24.063 34Z" fill="url(#paint1_linear_298_782)"/>
<defs>
<linearGradient id="paint0_linear_298_782" x1="6.45795" y1="7.97201" x2="22.3139" y2="21.277" gradientUnits="userSpaceOnUse">
<stop stop-color="#26ABE7"/>
<stop offset="1" stop-color="#086DBF"/>
</linearGradient>
<linearGradient id="paint1_linear_298_782" x1="31.334" y1="32.911" x2="19.517" y2="16.034" gradientUnits="userSpaceOnUse">
<stop stop-color="#FEB705"/>
<stop offset="1" stop-color="#FFDA1C"/>
</linearGradient>
</defs>
</svg>
