<svg width="44" height="33" viewBox="0 0 44 33" fill="none" xmlns="http://www.w3.org/2000/svg">
<path d="M37.8669 18.956C36.3289 18.964 34.9969 19.333 33.8809 19.884C33.4729 19.069 33.0589 18.352 32.9899 17.819C32.9089 17.197 32.8149 16.825 32.9129 16.084C33.0109 15.343 33.4399 14.293 33.4339 14.214C33.4279 14.135 33.3379 13.758 32.4509 13.751C31.5639 13.745 30.8049 13.922 30.7159 14.156C30.6269 14.39 30.4559 14.917 30.3499 15.467C30.1949 16.271 28.5789 19.14 27.6619 20.64C27.3619 20.054 27.1069 19.538 27.0539 19.13C26.9729 18.508 26.8789 18.136 26.9769 17.395C27.0749 16.654 27.5039 15.604 27.4979 15.525C27.4919 15.446 27.4019 15.069 26.5149 15.062C25.6279 15.056 24.8689 15.233 24.7799 15.467C24.6909 15.701 24.5949 16.248 24.4139 16.778C24.2319 17.307 22.0849 22.092 21.5219 23.333C21.2349 23.965 20.9859 24.473 20.8099 24.819L20.8089 24.817C20.8089 24.817 20.7979 24.84 20.7799 24.879C20.6289 25.174 20.5399 25.337 20.5399 25.337C20.5399 25.337 20.5409 25.339 20.5429 25.343C20.4229 25.56 20.2949 25.761 20.2319 25.761C20.1879 25.761 20.0989 25.184 20.2509 24.392C20.5709 22.732 21.3379 20.144 21.3309 20.054C21.3269 20.008 21.4739 19.557 20.8299 19.321C20.2039 19.092 19.9809 19.474 19.9239 19.475C19.8689 19.476 19.8279 19.61 19.8279 19.61C19.8279 19.61 20.5249 16.699 18.4979 16.699C17.2299 16.699 15.4739 18.086 14.6089 19.343C14.0629 19.641 12.8939 20.279 11.6549 20.96C11.1789 21.222 10.6929 21.489 10.2319 21.743C10.2009 21.708 10.1689 21.674 10.1369 21.639C7.67789 19.016 3.13389 17.161 3.32589 13.634C3.39589 12.352 3.84189 8.97599 12.0589 4.88199C18.7899 1.52799 24.1789 2.45099 25.1099 4.49599C26.4399 7.41899 22.2299 12.85 15.2399 13.634C12.5769 13.933 11.1739 12.9 10.8249 12.516C10.4579 12.111 10.4029 12.093 10.2659 12.169C10.0429 12.293 10.1839 12.65 10.2659 12.863C10.4749 13.406 11.3309 14.369 12.7909 14.849C14.0759 15.271 17.2029 15.502 20.9839 14.039C25.2199 12.401 28.5269 7.84299 27.5549 4.03399C26.5669 0.159993 20.1429 -1.11401 14.0629 1.04599C10.4399 2.33199 6.52289 4.34999 3.70589 6.98399C0.356887 10.116 -0.177113 12.843 0.0428871 13.982C0.824887 18.03 6.40389 20.666 8.63789 22.619C8.52789 22.68 8.42389 22.737 8.32989 22.789C7.20989 23.343 2.95689 25.569 1.89289 27.92C0.685887 30.587 2.08489 32.501 3.01089 32.759C5.87989 33.557 8.82389 32.121 10.4069 29.761C11.9889 27.402 11.7959 24.329 11.0699 22.927C11.0609 22.91 11.0509 22.893 11.0419 22.875C11.3309 22.704 11.6259 22.53 11.9179 22.358C12.4879 22.023 13.0479 21.711 13.5329 21.447C13.2609 22.191 13.0619 23.084 12.9589 24.373C12.8369 25.887 13.4579 27.844 14.2699 28.614C14.6279 28.953 15.0579 28.961 15.3299 28.961C16.2749 28.961 16.7059 28.175 17.1809 27.245C17.7629 26.105 18.2799 24.777 18.2799 24.777C18.2799 24.777 17.6319 28.363 19.3979 28.363C20.0419 28.363 20.6889 27.528 20.9779 27.103C20.9789 27.108 20.9789 27.11 20.9789 27.11C20.9789 27.11 20.9959 27.082 21.0289 27.027C21.0959 26.925 21.1339 26.86 21.1339 26.86C21.1339 26.86 21.1349 26.853 21.1369 26.841C21.3959 26.392 21.9699 25.368 22.8299 23.679C23.9419 21.497 25.0079 18.763 25.0079 18.763C25.0079 18.763 25.1069 19.431 25.4319 20.537C25.6229 21.187 26.0289 21.906 26.3499 22.596C26.0919 22.954 25.9339 23.159 25.9339 23.159C25.9339 23.159 25.9349 23.163 25.9379 23.17C25.7319 23.444 25.5009 23.739 25.2589 24.027C24.3809 25.072 23.3359 26.266 23.1959 26.61C23.0309 27.016 23.0699 27.314 23.3889 27.555C23.6219 27.73 24.0359 27.758 24.4689 27.729C25.2579 27.676 25.8119 27.48 26.0859 27.361C26.5129 27.21 27.0099 26.973 27.4759 26.63C28.3369 25.997 28.8559 25.092 28.8059 23.892C28.7779 23.231 28.5679 22.576 28.3009 21.958C28.3789 21.846 28.4569 21.732 28.5359 21.618C29.8929 19.634 30.9459 17.454 30.9459 17.454C30.9459 17.454 31.0449 18.122 31.3699 19.228C31.5339 19.787 31.8589 20.398 32.1509 20.996C30.8749 22.033 30.0839 23.238 29.8089 24.028C29.3009 25.49 29.6989 26.152 30.4449 26.303C30.7829 26.371 31.2609 26.216 31.6199 26.064C32.0669 25.916 32.6039 25.669 33.1059 25.3C33.9669 24.667 34.7949 23.781 34.7449 22.582C34.7219 22.036 34.5739 21.494 34.3729 20.974C35.4549 20.523 36.8549 20.273 38.6389 20.481C42.4659 20.928 43.2159 23.317 43.0729 24.317C42.9289 25.317 42.1269 25.867 41.8579 26.033C41.5899 26.199 41.5079 26.257 41.5299 26.38C41.5629 26.559 41.6869 26.553 41.9159 26.514C42.2309 26.461 43.9249 25.701 43.9979 23.855C44.0889 21.509 41.8439 18.935 37.8669 18.956ZM8.36989 28.9C7.10189 30.283 5.33189 30.805 4.57189 30.365C3.75189 29.89 4.07689 27.854 5.63189 26.386C6.57989 25.492 7.80389 24.668 8.61589 24.161C8.80089 24.05 9.07189 23.887 9.40189 23.689C9.45689 23.658 9.48789 23.641 9.48789 23.641L9.48689 23.639C9.55089 23.601 9.61589 23.562 9.68289 23.521C10.2499 25.61 9.70089 27.449 8.36989 28.9ZM17.6049 22.623C17.1639 23.699 16.2399 26.453 15.6769 26.305C15.1939 26.178 14.8999 24.085 15.5809 22.025C15.9229 20.988 16.6549 19.749 17.0849 19.268C17.7769 18.494 18.5389 18.241 18.7239 18.555C18.9589 18.955 17.8819 21.948 17.6049 22.623ZM25.2339 26.263C25.0469 26.361 24.8749 26.422 24.7959 26.375C24.7369 26.34 24.8729 26.211 24.8729 26.211C24.8729 26.211 25.8269 25.184 26.2029 24.717C26.4219 24.445 26.6749 24.122 26.9509 23.762C26.9529 23.798 26.9539 23.834 26.9539 23.869C26.9519 25.099 25.7639 25.929 25.2339 26.263ZM31.1109 24.923C30.9709 24.824 30.9949 24.503 31.4539 23.502C31.6339 23.109 32.0459 22.448 32.7599 21.816C32.8429 22.076 32.8929 22.325 32.8919 22.557C32.8829 24.105 31.7789 24.683 31.1109 24.923Z" fill="#F06292"/>
</svg>
